<svg width="32" height="32" viewBox="0 0 32 32" fill="none" xmlns="http://www.w3.org/2000/svg">
<path d="M30.9416 24.3876L29.7461 18.3607C29.6301 17.7888 29.3518 17.2631 28.945 16.8476C28.5383 16.4321 28.0205 16.1447 27.4548 16.0203V14.9355C27.4548 13.8699 27.035 12.8479 26.2876 12.0944C25.5403 11.3409 24.5267 10.9176 23.4699 10.9176L22.3342 10.8573C22.139 10.1545 21.7577 9.51851 21.2312 9.01768C20.7046 8.51686 20.0527 8.17011 19.3455 8.01466C19.1284 7.15996 18.6383 6.40107 17.9508 5.85515C17.2634 5.30923 16.4169 5.00663 15.5419 4.99406C14.6669 4.98149 13.8122 5.25965 13.1096 5.7856C12.4071 6.31155 11.8957 7.05605 11.6545 7.90417H11.5151C10.6321 7.90483 9.77441 8.20113 9.07659 8.74655C8.37877 9.29197 7.88037 10.0556 7.65964 10.9176H7.53013C6.47325 10.9176 5.45967 11.3409 4.71235 12.0944C3.96503 12.8479 3.54519 13.8699 3.54519 14.9355V16.0203C2.97945 16.1447 2.46173 16.4321 2.05496 16.8476C1.64818 17.2631 1.36987 17.7888 1.25385 18.3607L0.0583682 24.3876C-0.0285994 24.8247 -0.0182708 25.2759 0.0886093 25.7086C0.195489 26.1412 0.396257 26.5446 0.676436 26.8895C0.956614 27.2345 1.30922 27.5124 1.70883 27.7034C2.10844 27.8943 2.54509 27.9934 2.9873 27.9937H28.0127C28.4549 27.9934 28.8916 27.8943 29.2912 27.7034C29.6908 27.5124 30.0434 27.2345 30.3236 26.8895C30.6037 26.5446 30.8045 26.1412 30.9114 25.7086C31.0183 25.2759 31.0286 24.8247 30.9416 24.3876ZM7.53013 12.9265H8.52636C8.79058 12.9265 9.04397 12.8207 9.2308 12.6323C9.41763 12.444 9.52259 12.1885 9.52259 11.9221C9.52259 11.3893 9.73251 10.8783 10.1062 10.5015C10.4798 10.1248 10.9866 9.91312 11.5151 9.91312C12.0435 9.91312 12.5503 10.1248 12.924 10.5015C13.2976 10.8783 13.5075 11.3893 13.5075 11.9221C13.5075 12.1885 13.6125 12.444 13.7993 12.6323C13.9862 12.8207 14.2395 12.9265 14.5038 12.9265C14.768 12.9265 15.0214 12.8207 15.2082 12.6323C15.395 12.444 15.5 12.1885 15.5 11.9221C15.4975 11.2292 15.3172 10.5487 14.9769 9.94676C14.6365 9.34482 14.1475 8.84187 13.5573 8.48676C13.6479 8.07612 13.8641 7.70451 14.1753 7.42434C14.4866 7.14417 14.8772 6.96958 15.2921 6.9252C15.707 6.88081 16.1252 6.96887 16.4878 7.17695C16.8504 7.38503 17.1391 7.70264 17.3131 8.08497C16.8553 8.22746 16.4267 8.45204 16.0479 8.74793C15.8571 8.91637 15.7373 9.15183 15.7127 9.40631C15.6881 9.66079 15.7607 9.91514 15.9157 10.1175C16.0707 10.3199 16.2964 10.4551 16.5468 10.4955C16.7972 10.5359 17.0534 10.4785 17.2633 10.335C17.6138 10.0607 18.0451 9.91227 18.4887 9.91312C18.9254 9.91278 19.3501 10.0571 19.6975 10.3239C20.0449 10.5907 20.2957 10.9651 20.4114 11.3897C20.5163 11.8271 20.7638 12.2163 21.1143 12.495C21.4647 12.7737 21.8978 12.9256 22.3441 12.9265H23.4699C23.9983 12.9265 24.5051 13.1382 24.8788 13.5149C25.2524 13.8917 25.4623 14.4027 25.4623 14.9355V15.94H5.53766V14.9355C5.53766 14.4027 5.74758 13.8917 6.12124 13.5149C6.4949 13.1382 7.00169 12.9265 7.53013 12.9265ZM4.18278 17.9489H26.8172C27.0503 17.9442 27.2776 18.022 27.4597 18.1688C27.6417 18.3156 27.7669 18.5222 27.8135 18.7525L28.451 21.9668H2.54895L3.18654 18.7525C3.23312 18.5222 3.35832 18.3156 3.54035 18.1688C3.72238 18.022 3.94971 17.9442 4.18278 17.9489ZM28.7798 25.613C28.6871 25.7283 28.5702 25.8214 28.4376 25.8856C28.305 25.9499 28.1599 25.9837 28.0127 25.9847H2.9873C2.84015 25.9837 2.69504 25.9499 2.5624 25.8856C2.42977 25.8214 2.3129 25.7283 2.2202 25.613C2.12629 25.4984 2.05881 25.3641 2.02263 25.2199C1.98645 25.0757 1.98247 24.9252 2.01099 24.7793L2.17038 23.9758H28.8296L28.989 24.7793C29.0175 24.9252 29.0136 25.0757 28.9774 25.2199C28.9412 25.3641 28.8737 25.4984 28.7798 25.613Z" fill="#E2001A"/>
</svg>
