<svg width="20" height="20" viewBox="0 0 20 20" fill="none" xmlns="http://www.w3.org/2000/svg">
<path d="M13.2169 7.31799V4.79799C13.2169 2.94231 11.7767 1.43799 10.0002 1.43799C8.2236 1.43799 6.78342 2.94231 6.78342 4.79799V7.31799M3.23858 8.45364L2.75607 13.8296C2.61888 15.3582 2.55028 16.1225 2.7931 16.7128C3.00641 17.2314 3.38021 17.6601 3.85459 17.9304C4.39461 18.238 5.12951 18.238 6.5993 18.238H13.401C14.8708 18.238 15.6057 18.238 16.1457 17.9304C16.6201 17.6601 16.9939 17.2314 17.2072 16.7128C17.45 16.1225 17.3814 15.3582 17.2442 13.8296L16.7617 8.45364C16.6459 7.16288 16.5879 6.5175 16.31 6.02957C16.0653 5.59984 15.7037 5.25588 15.2712 5.04146C14.7802 4.79799 14.1596 4.79799 12.9185 4.79799L7.08181 4.79799C5.84066 4.79799 5.22009 4.79799 4.72906 5.04146C4.29661 5.25588 3.935 5.59984 3.69025 6.02956C3.41235 6.5175 3.35443 7.16288 3.23858 8.45364Z" stroke="#767676" stroke-width="1.2" stroke-linecap="round" stroke-linejoin="round"/>
</svg>
