<svg width="8" height="6" viewBox="0 0 8 6" fill="none" xmlns="http://www.w3.org/2000/svg">
<path d="M2.56322 5.62499C2.39326 5.6243 2.23038 5.55921 2.10971 5.44376L0.405787 3.80015C0.299647 3.6806 0.244185 3.52682 0.250483 3.36953C0.256781 3.21225 0.324376 3.06305 0.439759 2.95175C0.555143 2.84045 0.709817 2.77525 0.872872 2.76918C1.03593 2.7631 1.19535 2.8166 1.31929 2.91898L2.56322 4.11888L6.64485 0.181729C6.76624 0.0653326 6.93045 0 7.10161 0C7.27277 0 7.43697 0.0653326 7.55836 0.181729C7.61908 0.239826 7.66728 0.308945 7.70017 0.3851C7.73307 0.461255 7.75 0.542939 7.75 0.625439C7.75 0.707939 7.73307 0.789623 7.70017 0.865778C7.66728 0.941933 7.61908 1.01105 7.55836 1.06915L3.02321 5.44376C2.96268 5.50168 2.89088 5.5475 2.81194 5.5786C2.73301 5.6097 2.64849 5.62546 2.56322 5.62499Z" fill="white"/>
</svg>
