<svg
width="16"
height="16"
viewBox="0 0 16 16"
fill="none"
xmlns="http://www.w3.org/2000/svg"
>
<path
d="M14 7.49632L14 12.0001C14 13.1047 13.1046 14.0001 12 14.0001L4 14.0001C2.89543 14.0001 2 13.1047 2 12.0001L2 3.00012C2 1.89555 2.89543 1.00012 4 1.00012L7.48031 1.00012"
stroke="#666666"
stroke-linecap="round"
></path>
<path
d="M7.64499 6.64803C7.44973 6.84329 7.45038 7.15922 7.64645 7.35368C7.84251 7.54813 8.15975 7.54747 8.35501 7.35221L7.64499 6.64803ZM14.865 0.635125C14.8644 0.359555 14.6396 0.136624 14.3629 0.137196L9.85365 0.146513C9.57694 0.147085 9.35308 0.370943 9.35365 0.646513C9.35422 0.922084 9.579 1.14501 9.85571 1.14444L13.864 1.13616L13.8722 5.12788C13.8728 5.40345 14.0976 5.62638 14.3743 5.62581C14.651 5.62524 14.8748 5.40138 14.8743 5.12581L14.865 0.635125ZM8.35501 7.35221L14.719 0.98825L14.009 0.284071L7.64499 6.64803L8.35501 7.35221Z"
fill="#666666"
></path></svg>