<svg width="33" height="32" viewBox="0 0 33 32" fill="none" xmlns="http://www.w3.org/2000/svg">
<g clip-path="url(#clip0_5262_5633)">
<path d="M31.5 14.9937H29.5V12.9937C29.5 12.7284 29.3946 12.4741 29.2071 12.2865C29.0196 12.099 28.7652 11.9937 28.5 11.9937V8.99365C28.5 8.72844 28.3946 8.47408 28.2071 8.28655C28.0196 8.09901 27.7652 7.99365 27.5 7.99365H23.5C23.2348 7.99365 22.9804 8.09901 22.7929 8.28655C22.6054 8.47408 22.5 8.72844 22.5 8.99365V14.9937H10.5V8.99365C10.5 8.72844 10.3946 8.47408 10.2071 8.28655C10.0196 8.09901 9.76522 7.99365 9.5 7.99365H5.5C5.23478 7.99365 4.98043 8.09901 4.79289 8.28655C4.60536 8.47408 4.5 8.72844 4.5 8.99365V11.9937C4.23478 11.9937 3.98043 12.099 3.79289 12.2865C3.60536 12.4741 3.5 12.7284 3.5 12.9937V14.9937H1.5C1.23478 14.9937 0.98043 15.099 0.792893 15.2865C0.605357 15.4741 0.5 15.7284 0.5 15.9937C0.5 16.2589 0.605357 16.5132 0.792893 16.7008C0.98043 16.8883 1.23478 16.9937 1.5 16.9937H3.5V18.7237C3.5 18.9889 3.60536 19.2432 3.79289 19.4308C3.98043 19.6183 4.23478 19.7237 4.5 19.7237V22.9937C4.5 23.2589 4.60536 23.5132 4.79289 23.7008C4.98043 23.8883 5.23478 23.9937 5.5 23.9937H9.5C9.76522 23.9937 10.0196 23.8883 10.2071 23.7008C10.3946 23.5132 10.5 23.2589 10.5 22.9937V16.9937H22.5V22.9937C22.5 23.2589 22.6054 23.5132 22.7929 23.7008C22.9804 23.8883 23.2348 23.9937 23.5 23.9937H27.5C27.7652 23.9937 28.0196 23.8883 28.2071 23.7008C28.3946 23.5132 28.5 23.2589 28.5 22.9937V19.9937C28.7652 19.9937 29.0196 19.8883 29.2071 19.7008C29.3946 19.5132 29.5 19.2589 29.5 18.9937V16.9937H31.5C31.7652 16.9937 32.0196 16.8883 32.2071 16.7008C32.3946 16.5132 32.5 16.2589 32.5 15.9937C32.5 15.7284 32.3946 15.4741 32.2071 15.2865C32.0196 15.099 31.7652 14.9937 31.5 14.9937ZM8.5 20.9937C8.5 21.5459 8.05228 21.9937 7.5 21.9937C6.94772 21.9937 6.5 21.5459 6.5 20.9937V10.9937C6.5 10.4414 6.94772 9.99365 7.5 9.99365C8.05228 9.99365 8.5 10.4414 8.5 10.9937V20.9937ZM26.5 20.9937C26.5 21.5459 26.0523 21.9937 25.5 21.9937C24.9477 21.9937 24.5 21.5459 24.5 20.9937V10.9937C24.5 10.4414 24.9477 9.99365 25.5 9.99365C26.0523 9.99365 26.5 10.4414 26.5 10.9937V20.9937Z" fill="#E2001A"/>
</g>
<defs>
<clipPath id="clip0_5262_5633">
<rect width="32" height="32" fill="white" transform="translate(0.5 -0.00634766)"/>
</clipPath>
</defs>
</svg>
