<svg width="89" height="94" viewBox="0 0 89 94" fill="none" xmlns="http://www.w3.org/2000/svg">
<g filter="url(#filter0_d_6292_910)">
<path d="M4.43891 37.4561L38.9222 9.13409C40.6848 7.68612 43.1688 7.55595 45.0772 8.81152L82.332 33.3739L84.9753 83.8109L7.0822 87.8931L4.43891 37.4561Z" fill="#808285"/>
<path d="M10.5586 71.9027L8.2679 28.1929L37.555 3.40432C39.2435 1.97498 41.6258 1.85013 43.4583 3.09494L75.1761 24.6864L77.467 68.4003L10.5588 71.9068L10.5586 71.9027Z" fill="#EBEBEB"/>
<g filter="url(#filter1_d_6292_910)">
<rect x="8" y="20" width="71" height="43" rx="2" transform="rotate(-3 8 20)" fill="#F6F6F6"/>
</g>
<path d="M24.1225 44.266L16.2613 44.678L16.0679 40.9871L23.9291 40.5751L24.1225 44.266ZM35.2961 48.9196L31.3655 49.1256L30.691 36.2553L27.2138 39.6098L26.994 35.4156L30.4712 32.061L34.4018 31.855L35.2961 48.9196ZM50.8491 42.2645C50.9571 44.3257 50.7071 45.5164 49.5034 46.8532C48.7993 47.6351 47.5428 48.422 45.6254 48.5225C43.7081 48.6229 42.279 47.9528 41.4971 47.2488C40.2107 46.0905 39.9701 44.7092 39.8089 43.4679L43.7395 43.262C43.9184 44.3821 44.4329 45.0281 45.4395 44.9753C45.9189 44.9502 46.2242 44.814 46.5194 44.4861C46.8601 44.1078 46.9712 43.4771 46.9185 42.4705C46.8192 40.5771 46.1445 40.0837 45.1858 40.134C44.0354 40.1943 43.788 40.9763 43.6441 41.4404L40.025 41.6301L39.4988 31.5879L49.9005 31.0428L50.0864 34.5899L43.2557 34.9479L43.3939 37.5843C43.7156 37.303 44.605 36.8479 45.6596 36.7926C47.1455 36.7147 48.2984 37.159 49.0299 37.8176C50.4928 39.1349 50.7649 40.6587 50.8491 42.2645ZM71.495 43.8261C71.6144 46.103 69.944 47.248 68.0506 47.3472C66.1572 47.4464 64.3763 46.4823 64.257 44.2054L64.1376 41.9286C64.0183 39.6517 65.6887 38.5067 67.5821 38.4075C69.4755 38.3082 71.2564 39.2724 71.3757 41.5492L71.495 43.8261ZM59.9095 35.9977C60.0288 38.2746 58.3584 39.4196 56.465 39.5188C54.5716 39.618 52.7907 38.6539 52.6714 36.3771L52.5521 34.1002C52.4327 31.8233 54.1031 30.6783 55.9965 30.5791C57.8899 30.4799 59.6708 31.444 59.7901 33.7209L59.9095 35.9977ZM67.1487 30.1388L59.9182 47.6292L56.8984 47.7875L64.1289 30.2971L67.1487 30.1388ZM57.1242 36.0476L57.015 33.9624C56.9785 33.2674 56.6065 33.0465 56.1271 33.0717C55.6478 33.0968 55.3008 33.3553 55.3373 34.0503L55.4465 36.1355C55.483 36.8305 55.855 37.0514 56.3344 37.0262C56.8137 37.0011 57.1607 36.7426 57.1242 36.0476ZM68.7098 43.8759L68.6006 41.7908C68.5641 41.0958 68.1921 40.8749 67.7127 40.9001C67.2334 40.9252 66.8864 41.1837 66.9229 41.8787L67.0321 43.9639C67.0686 44.6589 67.4406 44.8797 67.92 44.8546C68.3993 44.8295 68.7463 44.571 68.7098 43.8759Z" fill="#E2001A"/>
<path d="M4 38L44.2549 60.9246L6.6168 87.9315L4 38Z" fill="#EAEAEA"/>
<path d="M81.9466 33.9589L44.3084 60.9657L84.5633 83.8904L81.9466 33.9589Z" fill="#EAEAEA"/>
<path d="M6.6222 87.9534L40.6885 56.3424C42.5351 54.6286 45.3158 54.4829 47.3314 55.9943L84.5155 83.8753L6.62241 87.9575L6.6222 87.9534Z" fill="#F6F6F6"/>
</g>
<defs>
<filter id="filter0_d_6292_910" x="0.100137" y="0.420298" width="88.7751" height="93.517" filterUnits="userSpaceOnUse" color-interpolation-filters="sRGB">
<feFlood flood-opacity="0" result="BackgroundImageFix"/>
<feColorMatrix in="SourceAlpha" type="matrix" values="0 0 0 0 0 0 0 0 0 0 0 0 0 0 0 0 0 0 127 0" result="hardAlpha"/>
<feOffset dy="2.07993"/>
<feGaussianBlur stdDeviation="1.94993"/>
<feComposite in2="hardAlpha" operator="out"/>
<feColorMatrix type="matrix" values="0 0 0 0 0 0 0 0 0 0 0 0 0 0 0 0 0 0 0.07 0"/>
<feBlend mode="normal" in2="BackgroundImageFix" result="effect1_dropShadow_6292_910"/>
<feBlend mode="normal" in="SourceGraphic" in2="effect1_dropShadow_6292_910" result="shape"/>
</filter>
<filter id="filter1_d_6292_910" x="7.25434" y="15.9905" width="74.6444" height="48.1482" filterUnits="userSpaceOnUse" color-interpolation-filters="sRGB">
<feFlood flood-opacity="0" result="BackgroundImageFix"/>
<feColorMatrix in="SourceAlpha" type="matrix" values="0 0 0 0 0 0 0 0 0 0 0 0 0 0 0 0 0 0 127 0" result="hardAlpha"/>
<feOffset dy="0.45198"/>
<feGaussianBlur stdDeviation="0.423732"/>
<feComposite in2="hardAlpha" operator="out"/>
<feColorMatrix type="matrix" values="0 0 0 0 0 0 0 0 0 0 0 0 0 0 0 0 0 0 0.07 0"/>
<feBlend mode="normal" in2="BackgroundImageFix" result="effect1_dropShadow_6292_910"/>
<feBlend mode="normal" in="SourceGraphic" in2="effect1_dropShadow_6292_910" result="shape"/>
</filter>
</defs>
</svg>
