<svg width="32" height="32" viewBox="0 0 32 32" fill="none" xmlns="http://www.w3.org/2000/svg">
<g clip-path="url(#clip0_5266_26162)">
<path d="M16.3687 8.26379L22.0277 14.3773C22.2127 14.5766 22.4364 14.7361 22.6853 14.8458C22.9342 14.9556 23.2029 15.0134 23.4749 15.0156C23.7469 15.0134 24.0156 14.9556 24.2645 14.8458C24.5133 14.7361 24.7371 14.5766 24.9221 14.3773L30.641 8.24384C31.0577 7.82164 31.3956 7.32856 31.639 6.78776C31.9983 5.89585 32.0919 4.91916 31.9085 3.97533C31.7375 3.04024 31.2924 2.17699 30.6296 1.49514C29.9668 0.813296 29.1162 0.343589 28.1857 0.145637C27.3181 -0.0178466 26.4221 0.0624719 25.5974 0.377652C24.7728 0.692832 24.0518 1.23051 23.5148 1.93083C23.2889 1.61919 23.0277 1.33473 22.7363 1.08311C22.202 0.639145 21.5755 0.319363 20.9024 0.146885C20.2292 -0.0255936 19.5261 -0.0464586 18.8439 0.0857977C17.9096 0.282611 17.0557 0.754476 16.3922 1.44059C15.7286 2.12671 15.2859 2.99565 15.1211 3.93544C14.942 4.8844 15.0426 5.86489 15.4105 6.75784C15.6341 7.31465 15.959 7.82525 16.3687 8.26379ZM17.0374 4.35431C17.132 3.79859 17.3922 3.28431 17.784 2.87865C18.1757 2.47299 18.6807 2.19481 19.2331 2.08043C19.6238 2.00041 20.0276 2.00905 20.4145 2.10571C20.8014 2.20237 21.1617 2.38459 21.4688 2.63893C21.7913 2.91993 22.0478 3.26845 22.2203 3.65972C22.3928 4.05098 22.477 4.4754 22.4668 4.90283C22.4668 5.16734 22.572 5.42101 22.7592 5.60804C22.9463 5.79507 23.2002 5.90015 23.4649 5.90015C23.7296 5.90015 23.9835 5.79507 24.1706 5.60804C24.3578 5.42101 24.463 5.16734 24.463 4.90283C24.4609 4.47079 24.5546 4.04366 24.7376 3.65219C24.9205 3.26073 25.1881 2.91466 25.5209 2.63893C25.8333 2.37657 26.202 2.18971 26.5984 2.09285C26.9948 1.99599 27.4082 1.99174 27.8065 2.08043C28.345 2.20282 28.8357 2.48083 29.2172 2.87985C29.5988 3.27886 29.8544 3.78123 29.9523 4.32439C30.0715 4.91003 30.0124 5.51791 29.7826 6.06969C29.6478 6.38535 29.4548 6.6729 29.2138 6.91741L23.5348 13.0509L17.8258 6.89746C17.5869 6.65888 17.394 6.37825 17.257 6.06969C17.0203 5.53086 16.9441 4.93531 17.0374 4.35431ZM31.4594 27.1729L13.5442 16.6712H13.4943C13.2747 16.5116 13.0351 16.362 12.7956 16.2224C11.6705 15.5588 10.4073 15.1639 9.10441 15.0684C7.80151 14.9728 6.49412 15.1793 5.28417 15.6716C4.07422 16.1639 2.99441 16.9288 2.1289 17.9066C1.26339 18.8845 0.635581 20.0488 0.294405 21.309C-0.0467704 22.5691 -0.092091 23.8909 0.161976 25.1714C0.416044 26.4519 0.962634 27.6565 1.75914 28.6913C2.55564 29.726 3.58054 30.5629 4.75393 31.1369C5.92732 31.7108 7.2175 32.0061 8.5239 31.9999C10.6486 32.0056 12.6975 31.2115 14.2628 29.7759L27.6268 31.9999H27.7865C28.0373 32.0018 28.2796 31.9092 28.4652 31.7406L31.6291 28.7487C31.7422 28.6426 31.8291 28.5117 31.8828 28.3663C31.9365 28.2209 31.9556 28.065 31.9385 27.9109C31.9204 27.7595 31.8678 27.6142 31.7848 27.4863C31.7017 27.3583 31.5904 27.2511 31.4594 27.1729ZM10.2206 29.8158C9.40001 30.0387 8.54321 30.0962 7.70015 29.985C6.85709 29.8737 6.04463 29.5958 5.31013 29.1675C4.06347 28.4546 3.08835 27.349 2.53726 26.0235C1.98616 24.698 1.89014 23.2275 2.26422 21.8417C2.63829 20.4559 3.46137 19.233 4.60477 18.3643C5.74817 17.4956 7.14743 17.0299 8.58378 17.0402C10.0051 17.0448 11.3854 17.5172 12.5111 18.3843C13.6369 19.2514 14.4454 20.4649 14.8117 21.8373C15.0352 22.6624 15.0938 23.5234 14.984 24.3712C14.8741 25.2189 14.5981 26.0367 14.1717 26.7778C13.7453 27.5188 13.1768 28.1686 12.4989 28.6899C11.8209 29.2112 11.0467 29.5938 10.2206 29.8158ZM27.4572 29.9155L15.7399 28.0106L15.8896 27.7713C16.4494 26.8083 16.8125 25.7439 16.9582 24.6398C17.1038 23.5357 17.0289 22.4136 16.738 21.3386C16.6881 21.1391 16.6182 20.9397 16.5483 20.7402L20.8001 23.2335L20.1314 24.5599C20.013 24.7955 19.9927 25.0682 20.075 25.3187C20.1573 25.5691 20.3355 25.7768 20.5705 25.8963C20.7102 25.9762 20.8687 26.0175 21.0296 26.016C21.2139 26.0155 21.3945 25.9639 21.5513 25.8671C21.7081 25.7703 21.835 25.632 21.9179 25.4675L22.5367 24.2508L29.3036 28.24L27.4572 29.9155Z" fill="#E2001A"/>
<path d="M12.8805 22.4671C12.6415 21.4537 12.0585 20.5545 11.2307 19.9228C10.403 19.2911 9.38178 18.966 8.34116 19.0028C7.30053 19.0396 6.30488 19.4362 5.52388 20.1248C4.74287 20.8134 4.22485 21.7516 4.05809 22.7793C3.89134 23.8071 4.08616 24.8609 4.60937 25.7611C5.13257 26.6613 5.95178 27.3523 6.92738 27.7162C7.90298 28.0801 8.9746 28.0945 9.95962 27.7569C10.9446 27.4192 11.7821 26.7505 12.3292 25.8647C12.955 24.8495 13.1532 23.628 12.8805 22.4671ZM10.6253 24.8123C10.3242 25.3025 9.86242 25.673 9.31865 25.8608C8.77488 26.0485 8.18282 26.0419 7.6434 25.8419C7.10399 25.642 6.65062 25.2612 6.36061 24.7644C6.07059 24.2676 5.96188 23.6856 6.053 23.1176C6.14413 22.5497 6.42945 22.0309 6.86032 21.6497C7.29119 21.2686 7.84094 21.0487 8.41582 21.0275C8.99071 21.0063 9.55515 21.1852 10.0129 21.5336C10.4706 21.882 10.7934 22.3784 10.926 22.9382C11.0777 23.5781 10.9696 24.252 10.6253 24.8123Z" fill="#E2001A"/>
</g>
<defs>
<clipPath id="clip0_5266_26162">
<rect width="32" height="32" fill="white"/>
</clipPath>
</defs>
</svg>
