<svg width="15" height="10" viewBox="0 0 15 10" fill="none" xmlns="http://www.w3.org/2000/svg">
<path d="M7.5 3C7.99728 3 8.47419 3.21071 8.82583 3.58579C9.17746 3.96086 9.375 4.46957 9.375 5C9.375 5.53043 9.17746 6.03914 8.82583 6.41421C8.47419 6.78929 7.99728 7 7.5 7C7.00272 7 6.52581 6.78929 6.17417 6.41421C5.82254 6.03914 5.625 5.53043 5.625 5C5.625 4.46957 5.82254 3.96086 6.17417 3.58579C6.52581 3.21071 7.00272 3 7.5 3ZM7.5 0C10.625 0 13.2937 2.07333 14.375 5C13.2937 7.92667 10.625 10 7.5 10C4.375 10 1.70625 7.92667 0.625 5C1.70625 2.07333 4.375 0 7.5 0ZM1.9875 5C2.49266 6.1002 3.27707 7.02717 4.25155 7.6755C5.22603 8.32384 6.3515 8.66755 7.5 8.66755C8.6485 8.66755 9.77397 8.32384 10.7485 7.6755C11.7229 7.02717 12.5073 6.1002 13.0125 5C12.5073 3.8998 11.7229 2.97283 10.7485 2.3245C9.77397 1.67616 8.6485 1.33245 7.5 1.33245C6.3515 1.33245 5.22603 1.67616 4.25155 2.3245C3.27707 2.97283 2.49266 3.8998 1.9875 5Z" fill="#666666"/>
</svg>
