<svg width="32" height="32" viewBox="0 0 32 32" fill="none" xmlns="http://www.w3.org/2000/svg">
<g clip-path="url(#clip0_5266_26146)">
<path d="M31.0054 14.9967C30.7636 14.9991 30.5291 14.913 30.3453 14.7543L16.002 2.34297L1.65869 14.7543C1.45708 14.9297 1.1947 15.0171 0.929277 14.9972C0.663852 14.9773 0.417122 14.8518 0.243365 14.6483C0.0696084 14.4447 -0.0169421 14.1798 0.00275375 13.9118C0.0224496 13.6438 0.146778 13.3947 0.348389 13.2193L15.3518 0.242436C15.533 0.0859768 15.7636 0 16.002 0C16.2404 0 16.471 0.0859768 16.6521 0.242436L31.6556 13.2193C31.8558 13.3948 31.9787 13.6433 31.9975 13.9103C32.0162 14.1773 31.9292 14.4409 31.7556 14.6432C31.6628 14.7528 31.5478 14.841 31.4184 14.902C31.289 14.9629 31.1482 14.9952 31.0054 14.9967Z" fill="#E2001A"/>
<path d="M15.9925 32C15.6865 31.9999 15.3836 31.9382 15.1027 31.8185C14.8219 31.6989 14.5689 31.5239 14.3594 31.3043L7.1196 23.7303C6.6287 23.233 6.23389 22.652 5.95447 22.0156C5.50858 20.9559 5.38742 19.7911 5.60593 18.6646C5.81033 17.5491 6.34909 16.5192 7.15296 15.7073C7.95683 14.8954 8.98909 14.3386 10.1171 14.1084C11.2289 13.893 12.3807 14.0071 13.4266 14.4362C14.4725 14.8653 15.3655 15.59 15.9925 16.5187C16.3118 16.0522 16.6975 15.6331 17.1378 15.2744C17.7912 14.7474 18.5552 14.3695 19.3749 14.1679C20.1945 13.9663 21.0494 13.946 21.878 14.1084C23.0027 14.3385 24.0323 14.8928 24.8357 15.7007C25.6391 16.5086 26.1799 17.5336 26.3891 18.645C26.6135 19.7672 26.4957 20.9296 26.0505 21.9862C25.7728 22.6264 25.3778 23.2109 24.8854 23.7107L17.6357 31.3043C17.4236 31.5233 17.1687 31.6977 16.8863 31.8173C16.604 31.9368 16.2999 31.999 15.9925 32ZM15.8033 29.962C15.8226 29.9945 15.8503 30.0215 15.8834 30.0402C15.9166 30.059 15.9543 30.0689 15.9925 30.0689C16.0308 30.0689 16.0684 30.059 16.1016 30.0402C16.1348 30.0215 16.1625 29.9945 16.1818 29.962L23.4414 22.3683C23.7708 22.0372 24.0342 21.6484 24.2182 21.2219C24.5184 20.5162 24.5981 19.7384 24.4472 18.9879C24.3038 18.2688 23.949 17.6069 23.4267 17.0844C22.9045 16.5618 22.2379 16.2016 21.5095 16.0484C20.968 15.9398 20.4087 15.9521 19.8727 16.0844C19.3367 16.2166 18.8377 16.4655 18.4124 16.8127C17.9725 17.1711 17.6179 17.62 17.3736 18.1279C17.1293 18.6358 17.0012 19.1903 16.9983 19.7522C16.9983 20.012 16.8934 20.2613 16.7067 20.445C16.5199 20.6288 16.2666 20.732 16.0025 20.732C15.7384 20.732 15.4851 20.6288 15.2983 20.445C15.1116 20.2613 15.0067 20.012 15.0067 19.7522C15.0038 19.1903 14.8757 18.6358 14.6314 18.1279C14.3871 17.62 14.0325 17.1711 13.5926 16.8127C13.1695 16.4651 12.6723 16.2159 12.1378 16.0835C11.6033 15.9512 11.0453 15.9392 10.5055 16.0484C9.76068 16.1951 9.07778 16.5583 8.54515 17.0911C8.01252 17.6239 7.65468 18.3018 7.51794 19.0369C7.39674 19.7765 7.4935 20.5348 7.79678 21.2219C7.98019 21.6429 8.24386 22.0254 8.57353 22.3487L15.8033 29.962Z" fill="#E2001A"/>
</g>
<defs>
<clipPath id="clip0_5266_26146">
<rect width="32" height="32" fill="white"/>
</clipPath>
</defs>
</svg>
