<svg width="32" height="32" viewBox="0 0 32 32" fill="none" xmlns="http://www.w3.org/2000/svg">
<path d="M30.9416 24.3939L29.7461 18.3671C29.6301 17.7951 29.3518 17.2694 28.945 16.8539C28.5383 16.4385 28.0205 16.1511 27.4548 16.0267V14.9418C27.4548 13.8762 27.035 12.8543 26.2876 12.1008C25.5403 11.3472 24.5267 10.9239 23.4699 10.9239L22.3342 10.8637C22.139 10.1608 21.7577 9.52485 21.2312 9.02403C20.7046 8.52321 20.0527 8.17645 19.3455 8.02101C19.1284 7.16631 18.6383 6.40742 17.9508 5.8615C17.2634 5.31558 16.4169 5.01298 15.5419 5.00041C14.6669 4.98784 13.8122 5.266 13.1096 5.79195C12.4071 6.3179 11.8957 7.0624 11.6545 7.91051H11.5151C10.6321 7.91118 9.77441 8.20748 9.07659 8.7529C8.37877 9.29832 7.88037 10.062 7.65964 10.9239H7.53013C6.47325 10.9239 5.45967 11.3472 4.71235 12.1008C3.96503 12.8543 3.54519 13.8762 3.54519 14.9418V16.0267C2.97945 16.1511 2.46173 16.4385 2.05496 16.8539C1.64818 17.2694 1.36987 17.7951 1.25385 18.3671L0.0583682 24.3939C-0.0285994 24.8311 -0.0182708 25.2823 0.0886093 25.7149C0.195489 26.1476 0.396257 26.5509 0.676436 26.8959C0.956614 27.2408 1.30922 27.5188 1.70883 27.7097C2.10844 27.9006 2.54509 27.9998 2.9873 28H28.0127C28.4549 27.9998 28.8916 27.9006 29.2912 27.7097C29.6908 27.5188 30.0434 27.2408 30.3236 26.8959C30.6037 26.5509 30.8045 26.1476 30.9114 25.7149C31.0183 25.2823 31.0286 24.8311 30.9416 24.3939ZM7.53013 12.9329H8.52636C8.79058 12.9329 9.04397 12.8271 9.2308 12.6387C9.41763 12.4503 9.52259 12.1948 9.52259 11.9284C9.52259 11.3956 9.73251 10.8846 10.1062 10.5079C10.4798 10.1311 10.9866 9.91946 11.5151 9.91946C12.0435 9.91946 12.5503 10.1311 12.924 10.5079C13.2976 10.8846 13.5075 11.3956 13.5075 11.9284C13.5075 12.1948 13.6125 12.4503 13.7993 12.6387C13.9862 12.8271 14.2395 12.9329 14.5038 12.9329C14.768 12.9329 15.0214 12.8271 15.2082 12.6387C15.395 12.4503 15.5 12.1948 15.5 11.9284C15.4975 11.2355 15.3172 10.555 14.9769 9.95311C14.6365 9.35117 14.1475 8.84822 13.5573 8.49311C13.6479 8.08247 13.8641 7.71086 14.1753 7.43069C14.4866 7.15052 14.8772 6.97593 15.2921 6.93155C15.707 6.88716 16.1252 6.97522 16.4878 7.1833C16.8504 7.39138 17.1391 7.70899 17.3131 8.09132C16.8553 8.23381 16.4267 8.45839 16.0479 8.75427C15.8571 8.92272 15.7373 9.15817 15.7127 9.41265C15.6881 9.66714 15.7607 9.92149 15.9157 10.1239C16.0707 10.3262 16.2964 10.4614 16.5468 10.5018C16.7972 10.5422 17.0534 10.4848 17.2633 10.3413C17.6138 10.0671 18.0451 9.91862 18.4887 9.91946C18.9254 9.91913 19.3501 10.0635 19.6975 10.3302C20.0449 10.597 20.2957 10.9715 20.4114 11.396C20.5163 11.8334 20.7638 12.2227 21.1143 12.5014C21.4647 12.78 21.8978 12.932 22.3441 12.9329H23.4699C23.9983 12.9329 24.5051 13.1445 24.8788 13.5213C25.2524 13.898 25.4623 14.409 25.4623 14.9418V15.9463H5.53766V14.9418C5.53766 14.409 5.74758 13.898 6.12124 13.5213C6.4949 13.1445 7.00169 12.9329 7.53013 12.9329ZM4.18278 17.9553H26.8172C27.0503 17.9505 27.2776 18.0283 27.4597 18.1752C27.6417 18.322 27.7669 18.5285 27.8135 18.7588L28.451 21.9732H2.54895L3.18654 18.7588C3.23312 18.5285 3.35832 18.322 3.54035 18.1752C3.72238 18.0283 3.94971 17.9505 4.18278 17.9553ZM28.7798 25.6194C28.6871 25.7346 28.5702 25.8277 28.4376 25.892C28.305 25.9562 28.1599 25.9901 28.0127 25.9911H2.9873C2.84015 25.9901 2.69504 25.9562 2.5624 25.892C2.42977 25.8277 2.3129 25.7346 2.2202 25.6194C2.12629 25.5047 2.05881 25.3704 2.02263 25.2263C1.98645 25.0821 1.98247 24.9316 2.01099 24.7857L2.17038 23.9821H28.8296L28.989 24.7857C29.0175 24.9316 29.0136 25.0821 28.9774 25.2263C28.9412 25.3704 28.8737 25.5047 28.7798 25.6194Z" fill="#E2001A"/>
</svg>
