<svg width="32" height="32" viewBox="0 0 32 32" fill="none" xmlns="http://www.w3.org/2000/svg">
<g clip-path="url(#clip0_5266_26154)">
<path d="M19.9866 23.9556C19.7302 23.9573 19.4829 23.8608 19.2957 23.6862C19.2019 23.5934 19.1274 23.483 19.0766 23.3614C19.0257 23.2398 18.9996 23.1094 18.9996 22.9776C18.9996 22.8459 19.0257 22.7154 19.0766 22.5938C19.1274 22.4722 19.2019 22.3619 19.2957 22.2691L28.1966 12.9084C28.7444 12.3506 29.1854 11.6979 29.4982 10.9824C29.9897 9.78844 30.1219 8.4777 29.8786 7.21015C29.6287 5.95487 29.0113 4.80154 28.1042 3.89573C27.1972 2.98991 26.0413 2.37223 24.7824 2.12065C23.8311 1.93521 22.8505 1.96161 21.9106 2.19796C20.9708 2.43431 20.0949 2.87477 19.3458 3.48783C18.6063 4.09587 18.011 4.85946 17.6024 5.72385C17.1939 6.58824 16.9824 7.53202 16.9829 8.48751C16.9829 8.75218 16.8774 9.00601 16.6897 9.19316C16.5019 9.38031 16.2472 9.48545 15.9817 9.48545C15.7161 9.48545 15.4615 9.38031 15.2737 9.19316C15.0859 9.00601 14.9805 8.75218 14.9805 8.48751C14.9795 7.5337 14.7672 6.59187 14.3588 5.72932C13.9503 4.86676 13.3558 4.10478 12.6176 3.49781C11.8693 2.88302 10.9938 2.44074 10.0539 2.20266C9.11403 1.96458 8.13296 1.93657 7.18094 2.12065C6.23819 2.31137 5.34968 2.70834 4.57956 3.28291C3.80943 3.85749 3.17691 4.59533 2.72765 5.44316C2.27839 6.291 2.0236 7.22769 1.98168 8.1856C1.93975 9.14351 2.11173 10.0988 2.48521 10.9824C2.80043 11.727 3.25585 12.4045 3.82685 12.9782L12.7077 22.309C12.8909 22.5022 12.9896 22.76 12.9821 23.0258C12.9746 23.2916 12.8615 23.5435 12.6676 23.7261C12.4738 23.9087 12.2151 24.0071 11.9485 23.9996C11.6818 23.9921 11.4291 23.8794 11.2459 23.6862L2.37508 14.3155C1.64773 13.5903 1.06057 12.7378 0.642963 11.8007C-0.07963 10.0545 -0.196827 8.11794 0.309949 6.29789C0.816725 4.47783 1.91848 2.87842 3.44058 1.7532C4.96267 0.627969 6.81803 0.0412941 8.71255 0.0861637C10.6071 0.131033 12.4324 0.80488 13.8991 2.0009C14.7503 2.6888 15.4578 3.53642 15.9817 4.49575C16.8069 2.95099 18.0914 1.69847 19.6589 0.909896C21.2264 0.121326 23.0002 -0.164684 24.7372 0.0910784C26.4742 0.34684 28.0894 1.13185 29.3612 2.33849C30.6329 3.54513 31.4992 5.11432 31.841 6.83093C32.1653 8.48747 31.9911 10.2026 31.3404 11.7608C30.9205 12.702 30.3299 13.5579 29.5983 14.2856L20.7175 23.6462C20.6232 23.7448 20.5098 23.823 20.3841 23.8762C20.2584 23.9294 20.1231 23.9564 19.9866 23.9556Z" fill="#E2001A"/>
<path d="M23 30.0541H17V16.4324L19.4 18.1838C19.5731 18.3101 19.7836 18.3784 20 18.3784C20.1552 18.3784 20.3084 18.3432 20.4472 18.2757C20.5861 18.2081 20.7069 18.11 20.8 17.9892C20.8788 17.887 20.9361 17.7707 20.9687 17.6469C21.0013 17.5231 21.0085 17.3943 20.99 17.2678C20.9714 17.1413 20.9274 17.0196 20.8605 16.9097C20.7936 16.7997 20.7051 16.7037 20.6 16.627L17.8 14.5838C17.2807 14.2048 16.6491 14 16 14C15.3509 14 14.7193 14.2048 14.2 14.5838L11.4 16.627C11.2949 16.7037 11.2064 16.7997 11.1395 16.9097C11.0726 17.0196 11.0286 17.1413 11.0101 17.2678C10.9915 17.3943 10.9987 17.5231 11.0313 17.6469C11.0639 17.7707 11.1212 17.887 11.2 17.9892C11.2788 18.0914 11.3775 18.1775 11.4905 18.2426C11.6035 18.3077 11.7286 18.3505 11.8586 18.3686C11.9886 18.3867 12.121 18.3796 12.2482 18.3479C12.3754 18.3162 12.4949 18.2604 12.6 18.1838L15 16.4324V30.0541H9C8.73478 30.0541 8.48043 30.1566 8.29289 30.339C8.10536 30.5215 8 30.769 8 31.027C8 31.2851 8.10536 31.5326 8.29289 31.715C8.48043 31.8975 8.73478 32 9 32H23C23.2652 32 23.5196 31.8975 23.7071 31.715C23.8946 31.5326 24 31.2851 24 31.027C24 30.769 23.8946 30.5215 23.7071 30.339C23.5196 30.1566 23.2652 30.0541 23 30.0541Z" fill="#E2001A"/>
</g>
<defs>
<clipPath id="clip0_5266_26154">
<rect width="32" height="32" fill="white"/>
</clipPath>
</defs>
</svg>
