<svg width="18" height="18" viewBox="0 0 18 18" fill="none" xmlns="http://www.w3.org/2000/svg">
<path d="M14.4375 10.2147C13.5707 9.37142 12.5117 8.75144 11.352 8.40824C12.1107 7.90788 12.6879 7.17632 12.9979 6.32209C13.3079 5.46787 13.3343 4.53648 13.073 3.66612C12.8117 2.79575 12.2768 2.03277 11.5475 1.49036C10.8182 0.94796 9.93351 0.655029 9.02456 0.655029C8.11562 0.655029 7.23089 0.94796 6.50162 1.49036C5.77235 2.03277 5.2374 2.79575 4.97613 3.66612C4.71486 4.53648 4.74119 5.46787 5.05121 6.32209C5.36123 7.17632 5.93843 7.90788 6.69718 8.40824C5.25943 8.83199 3.99346 9.70132 3.08185 10.8909C2.17024 12.0804 1.6601 13.5287 1.625 15.0268V15.9776C1.625 16.3979 1.792 16.801 2.08925 17.0981C2.38651 17.3953 2.78967 17.5623 3.21005 17.5623H14.8338C15.2542 17.5623 15.6573 17.3953 15.9546 17.0981C16.2518 16.801 16.4188 16.3979 16.4188 15.9776V14.8208C16.4144 13.9595 16.2367 13.1078 15.8963 12.3165C15.5559 11.5252 15.0598 10.8105 14.4375 10.2147ZM5.85181 4.88502C5.85181 4.25819 6.03774 3.64543 6.38607 3.12424C6.73441 2.60305 7.22951 2.19683 7.80877 1.95695C8.38803 1.71708 9.02544 1.65431 9.64038 1.7766C10.2553 1.89889 10.8202 2.20074 11.2635 2.64398C11.7069 3.08721 12.0088 3.65193 12.1311 4.26672C12.2534 4.8815 12.1907 5.51875 11.9507 6.09786C11.7108 6.67698 11.3045 7.17196 10.7831 7.52021C10.2618 7.86846 9.64891 8.05433 9.02192 8.05433C8.18116 8.05433 7.37483 7.72042 6.78032 7.12606C6.18581 6.5317 5.85181 5.72557 5.85181 4.88502ZM15.3621 15.9776C15.3621 16.1177 15.3065 16.2521 15.2074 16.3511C15.1083 16.4502 14.9739 16.5058 14.8338 16.5058H3.21005C3.06993 16.5058 2.93554 16.4502 2.83645 16.3511C2.73737 16.2521 2.6817 16.1177 2.6817 15.9776V15.0268C2.6817 11.8205 5.4714 9.16888 8.9004 9.11077C9.78298 9.08716 10.6615 9.23888 11.485 9.55713C12.3085 9.87539 13.0606 10.3539 13.6978 10.9648C14.2189 11.4638 14.6346 12.0621 14.9204 12.7244C15.2063 13.3867 15.3565 14.0995 15.3621 14.8208V15.9776Z" fill="#767676"/>
</svg>
