<svg width="17" height="18" viewBox="0 0 17 18" fill="none" xmlns="http://www.w3.org/2000/svg">
<path d="M16.4377 9.92813C16.6276 9.6297 16.7369 9.27852 16.7369 8.90285C16.7369 7.82381 15.8333 6.94622 14.7223 6.94622H11.3642C11.388 6.62261 11.4269 6.29764 11.4801 5.97573C11.6259 5.68887 12.0046 4.90519 12.259 4.02692C12.4545 3.35248 12.5379 2.75392 12.5067 2.24826C12.4468 1.28321 11.9797 0.781292 11.5982 0.530503C11.0632 0.178309 10.5398 0 10.0426 0C9.54546 0 9.11838 0.165718 8.76137 0.47946C8.51296 0.697922 8.38648 0.918426 8.35355 0.981039L8.28944 1.10286L8.27262 1.23863C8.1542 2.2013 7.6192 3.14218 7.19142 3.76184C6.71528 4.45125 6.27629 4.89124 6.27173 4.89533L6.21848 4.94841L6.17644 5.01034L4.12124 8.05622C3.90227 7.83402 3.59431 7.69552 3.25341 7.69552H1.20312C0.539899 7.69552 0 8.21956 0 8.86406V16.7147C0 17.3589 0.539549 17.8829 1.20312 17.8829H3.25411C3.63039 17.8829 3.96674 17.7142 4.18746 17.4504L4.43446 17.4766L8.92919 17.9551C9.09771 17.9718 9.52865 17.9792 11.1123 17.9898C12.1213 17.9966 13.131 18 13.1412 18H13.1426H13.144C14.255 18 15.1585 17.1224 15.1585 16.0437C15.1585 15.8872 15.1396 15.7334 15.1032 15.585C16.0327 15.4115 16.7369 14.6159 16.7369 13.6634C16.7369 13.2952 16.6328 12.9427 16.4384 12.6371C16.7859 12.2853 17 11.8082 17 11.2831C17 10.7581 16.7856 10.2803 16.4377 9.92846V9.92813ZM3.66753 16.7144C3.66753 16.9359 3.48184 17.1159 3.25411 17.1159H1.20312C0.975042 17.1159 0.789353 16.9356 0.789353 16.7144V8.86372C0.789353 8.64219 0.975042 8.46184 1.20312 8.46184H3.25411C3.48219 8.46184 3.66753 8.64219 3.66753 8.86372V16.7144ZM14.9858 12.4734H14.7227C15.0611 12.4734 15.3673 12.6068 15.5891 12.8219C15.8109 13.0376 15.9479 13.335 15.9479 13.6634C15.9479 14.3205 15.3992 14.8534 14.7223 14.8534H13.144C13.4824 14.8534 13.7886 14.9864 14.0104 15.2018C14.2322 15.4172 14.3692 15.715 14.3692 16.0434C14.3692 16.7005 13.8205 17.2333 13.144 17.2333C13.144 17.2333 9.11663 17.2194 9.01502 17.1928L4.5203 16.7144V8.86372L6.83686 5.43059C6.83686 5.43059 8.79115 3.48553 9.05672 1.32949C9.05672 1.32949 9.35242 0.76666 10.0426 0.76666C10.3387 0.76666 10.7069 0.870106 11.1557 1.16547C12.6517 2.14957 10.7213 5.73515 10.7213 5.73515C10.633 6.23536 10.5713 6.77573 10.5524 7.35218C10.5489 7.46277 10.5468 7.572 10.5464 7.68021C10.5457 7.70913 10.5454 7.73806 10.5447 7.76732C10.6606 7.73193 10.784 7.71288 10.9119 7.71288H14.7223C15.3992 7.71288 15.9479 8.24576 15.9479 8.90285C15.9479 9.55994 15.3992 10.0928 14.7223 10.0928H14.9855C15.6623 10.0928 16.211 10.6257 16.211 11.2828C16.211 11.9399 15.6623 12.4731 14.9855 12.4731L14.9858 12.4734Z" fill="white"/>
</svg>
