<svg width="15" height="17" viewBox="0 0 15 17" fill="none" xmlns="http://www.w3.org/2000/svg">
<path d="M14.5038 9.3407C14.6713 9.07039 14.7678 8.7523 14.7678 8.41202C14.7678 7.43463 13.9705 6.63972 12.9903 6.63972H10.0272C10.0482 6.3466 10.0825 6.05224 10.1295 5.76066C10.2581 5.50082 10.5923 4.79098 10.8167 3.99545C10.9892 3.38454 11.0628 2.84237 11.0353 2.38435C10.9824 1.51022 10.5703 1.05559 10.2337 0.828425C9.76165 0.509411 9.2998 0.3479 8.86113 0.3479C8.42247 0.3479 8.04563 0.498006 7.73062 0.782191C7.51145 0.980072 7.39985 1.1798 7.37079 1.23652L7.31422 1.34686L7.29938 1.46984C7.19489 2.34181 6.72284 3.19406 6.34538 3.75534C5.92527 4.37981 5.53792 4.77834 5.5339 4.78204L5.48691 4.83012L5.44982 4.88622L3.63643 7.64515C3.44322 7.44388 3.17149 7.31843 2.8707 7.31843H1.06163C0.47644 7.31843 6.10352e-05 7.7931 6.10352e-05 8.37688V15.488C6.10352e-05 16.0714 0.47613 16.5461 1.06163 16.5461H2.87132C3.20333 16.5461 3.5001 16.3932 3.69485 16.1543L3.91279 16.1781L7.8787 16.6114C8.02739 16.6265 8.40763 16.6333 9.80492 16.6429C10.6952 16.649 11.5862 16.6521 11.5951 16.6521H11.5964H11.5976C12.5779 16.6521 13.3751 15.8572 13.3751 14.8801C13.3751 14.7384 13.3584 14.599 13.3263 14.4647C14.1464 14.3075 14.7678 13.5868 14.7678 12.7241C14.7678 12.3906 14.676 12.0713 14.5044 11.7945C14.8111 11.4758 15 11.0437 15 10.5681C15 10.0925 14.8108 9.65941 14.5038 9.3407ZM3.2361 15.4877C3.2361 15.6883 3.07225 15.8514 2.87132 15.8514H1.06163C0.860386 15.8514 0.696544 15.688 0.696544 15.4877V8.37657C0.696544 8.17592 0.860386 8.01256 1.06163 8.01256H2.87132C3.07256 8.01256 3.2361 8.17592 3.2361 8.37657V15.4877ZM13.2227 11.6462H12.9906C13.2892 11.6462 13.5594 11.7671 13.7551 11.9619C13.9507 12.1573 14.0716 12.4267 14.0716 12.7241C14.0716 13.3193 13.5875 13.802 12.9903 13.802H11.5976C11.8962 13.802 12.1664 13.9225 12.3621 14.1176C12.5578 14.3127 12.6787 14.5824 12.6787 14.8798C12.6787 15.475 12.1945 15.9577 11.5976 15.9577C11.5976 15.9577 8.04409 15.9451 7.95444 15.921L3.98853 15.4877V8.37657L6.03254 5.26688C6.03254 5.26688 7.7569 3.50506 7.99122 1.55214C7.99122 1.55214 8.25214 1.04233 8.86113 1.04233C9.12235 1.04233 9.44726 1.13603 9.84326 1.40357C11.1633 2.29496 9.45993 5.54274 9.45993 5.54274C9.38203 5.99583 9.32762 6.4853 9.31093 7.00743C9.30783 7.1076 9.30598 7.20655 9.30567 7.30456C9.30505 7.33076 9.30474 7.35696 9.30412 7.38347C9.40645 7.35141 9.51527 7.33415 9.6281 7.33415H12.9903C13.5875 7.33415 14.0716 7.81683 14.0716 8.41202C14.0716 9.0072 13.5875 9.48988 12.9903 9.48988H13.2224C13.8197 9.48988 14.3038 9.97257 14.3038 10.5678C14.3038 11.1629 13.82 11.6462 13.2227 11.6462Z" fill="white"/>
<path d="M3.63783 7.89368H1.51581H0.606369L0.303223 15.7755L1.51581 16.3818L3.63783 15.7755L12.4291 16.0786L13.0354 14.866L13.9448 13.6535L14.5511 10.622L14.248 7.28739L9.70076 6.98424L10.3071 5.16536L10.6102 1.83075L9.09447 0.618164L7.88188 1.22446L7.27559 2.74019L3.63783 7.89368Z" fill="white"/>
</svg>
