<svg width="32" height="32" viewBox="0 0 32 32" fill="none" xmlns="http://www.w3.org/2000/svg">
<path d="M15.9894 28.9937C15.5857 28.9934 15.1862 28.912 14.8148 28.7544C14.4434 28.5968 14.1077 28.3662 13.8278 28.0763L2.39946 16.2507C1.66637 15.529 1.07572 14.6767 0.658183 13.738C-0.183702 11.7315 -0.219219 9.47924 0.558981 7.44734C1.33718 5.41545 2.86954 3.75937 4.839 2.82176C6.80847 1.88414 9.06432 1.73676 11.1398 2.4101C13.2153 3.08343 14.9516 4.52596 15.9894 6.4392C16.5186 5.4845 17.225 4.63859 18.0709 3.94645C19.5363 2.73833 21.3657 2.05438 23.2669 2.00384C25.1682 1.95331 27.0316 2.53911 28.5595 3.66766C30.0874 4.79622 31.1916 6.40242 31.6957 8.22967C32.1999 10.0569 32.0748 11.9998 31.3406 13.748C30.9209 14.6884 30.3306 15.5436 29.5994 16.2706L18.151 28.0763C17.8711 28.3662 17.5354 28.5968 17.164 28.7544C16.7926 28.912 16.3931 28.9934 15.9894 28.9937ZM15.2689 26.6903C15.3622 26.7868 15.4741 26.8636 15.5979 26.916C15.7217 26.9685 15.8549 26.9955 15.9894 26.9955C16.1239 26.9955 16.2571 26.9685 16.3809 26.916C16.5047 26.8636 16.6166 26.7868 16.7099 26.6903L28.1583 14.8348C28.722 14.2862 29.1769 13.6367 29.4993 12.9204C29.9952 11.7286 30.1275 10.4176 29.8796 9.15132C29.6298 7.8971 29.0126 6.74474 28.106 5.83969C27.1995 4.93464 26.0441 4.31747 24.7858 4.0661C23.835 3.88082 22.8549 3.9072 21.9155 4.14335C20.9761 4.3795 20.1007 4.81959 19.3519 5.43213C18.614 6.03859 18.0198 6.79994 17.6115 7.66177C17.2032 8.5236 16.9911 9.46463 16.9901 10.4176C16.9901 10.6821 16.8847 10.9357 16.697 11.1227C16.5094 11.3097 16.2548 11.4147 15.9894 11.4147C15.724 11.4147 15.4695 11.3097 15.2818 11.1227C15.0941 10.9357 14.9887 10.6821 14.9887 10.4176C14.9877 9.46463 14.7756 8.5236 14.3673 7.66177C13.959 6.79994 13.3648 6.03859 12.6269 5.43213C11.8781 4.81959 11.0027 4.3795 10.0633 4.14335C9.12395 3.9072 8.14379 3.88082 7.19297 4.0661C6.25067 4.25666 5.3626 4.6533 4.59285 5.22739C3.82311 5.80148 3.19089 6.5387 2.74185 7.38582C2.29281 8.23295 2.03815 9.16885 1.99624 10.126C1.95434 11.0831 2.12624 12.0375 2.49953 12.9204C2.81459 13.6643 3.26979 14.3413 3.84051 14.9146L15.2689 26.6903Z" fill="#E2001A"/>
</svg>
