<svg width="130" height="71" viewBox="0 0 130 71" fill="none" xmlns="http://www.w3.org/2000/svg">
<path d="M106.059 57.0799C95.928 49.5599 80.731 45.0799 65.06 45.0799C49.389 45.0799 34.034 49.5599 24.062 57.0799C23.112 57.7199 22.637 58.8399 22.637 60.1199C22.637 62.3599 24.22 63.9599 26.436 63.9599C27.227 63.9599 28.019 63.6399 28.81 63.1599C35.617 58.0399 48.756 52.5999 65.377 52.5999C81.998 52.5999 94.978 58.0399 101.785 63.1599L101.943 63.3199C103.526 64.4399 106.059 64.1199 107.167 62.3599C108.117 60.5999 107.8 58.1999 106.059 57.0799ZM65.06 54.1999C50.497 54.1999 36.725 58.5199 28.177 65.7199C28.177 65.7199 28.177 65.7199 28.019 65.7199C27.069 66.6799 26.911 68.2799 27.702 69.3999C28.177 70.0399 28.81 70.3599 29.76 70.3599C30.393 70.3599 30.868 70.1999 31.343 69.7199C38.941 63.3199 51.605 59.3199 64.902 59.3199C78.199 59.3199 90.704 63.1599 98.461 69.7199C99.569 70.6799 101.31 70.5199 102.101 69.3999C103.051 68.2799 102.893 66.5199 101.785 65.7199C93.237 58.6799 79.465 54.1999 65.06 54.1999ZM17.888 26.5199C18.996 21.8799 16.305 17.2399 11.556 15.7999C10.923 15.6399 10.131 15.4799 9.33999 15.4799C4.59099 15.4799 0.791992 19.3199 0.791992 24.1199C0.791992 28.9199 4.59099 32.7599 9.33999 32.7599C13.614 33.0799 16.938 30.3599 17.888 26.5199ZM65.06 39.9599C69.809 39.9599 73.608 36.1199 73.608 31.3199C73.608 26.5199 69.809 22.6799 65.06 22.6799C60.311 22.6799 56.512 26.5199 56.512 31.3199C56.512 36.1199 60.153 39.9599 65.06 39.9599ZM65.06 17.8799C69.809 17.8799 73.608 14.0399 73.608 9.2399C73.608 4.43994 69.809 0.439939 65.06 0.439939C60.311 0.439939 56.512 4.27994 56.512 9.0799C56.354 14.0399 60.153 17.8799 65.06 17.8799ZM39.733 25.7199C35.142 26.9999 32.451 31.9599 33.718 36.5999C34.667 40.2799 38.15 42.8399 41.949 42.9999H42.107C42.74 42.9999 43.532 42.8399 44.323 42.6799C48.914 41.3999 51.605 36.5999 50.497 31.9599C49.547 28.1199 46.065 25.3999 42.107 25.3999C41.157 25.3999 40.524 25.5599 39.733 25.7199ZM28.969 45.3999C30.077 40.7599 27.386 35.7999 22.637 34.6799C22.004 34.5199 21.212 34.3599 20.421 34.3599C18.996 34.3599 17.413 34.8399 15.988 35.4799C13.931 36.5999 12.506 38.6799 12.031 40.7599C11.398 43.1599 11.714 45.3999 12.981 47.4799C14.405 50.1999 17.255 51.6399 20.421 51.7999C21.845 51.7999 23.587 51.4799 24.853 50.6799C26.911 49.5599 28.494 47.6399 28.969 45.3999ZM85.797 42.5199C86.588 42.6799 87.222 42.8399 88.171 42.8399C92.92 42.8399 96.719 38.8399 96.719 34.1999C96.719 30.1999 94.028 26.8399 90.388 25.8799C89.596 25.7199 88.963 25.5599 88.013 25.5599C83.264 25.5599 79.465 29.5599 79.465 34.3599C79.307 38.0399 81.998 41.5599 85.797 42.5199ZM91.496 21.3999C92.129 21.5599 92.92 21.7199 93.87 21.7199C98.619 21.7199 102.418 17.7199 102.418 13.0799C102.418 9.0799 99.727 5.7199 96.086 4.75994C95.295 4.59994 94.662 4.43994 93.712 4.43994C88.963 4.43994 85.164 8.4399 85.164 13.2399C85.164 16.7599 87.855 20.2799 91.496 21.3999ZM113.974 35.6399C112.707 34.8399 111.124 34.5199 109.7 34.5199C104.951 34.5199 101.152 38.3599 101.152 43.1599C101.152 43.7999 101.31 44.5999 101.468 45.3999C101.943 47.6399 103.526 49.5599 105.426 50.6799C109.541 53.2399 114.923 51.6399 117.298 47.4799C118.406 45.3999 118.722 43.1599 118.248 40.7599C117.298 38.8399 115.873 36.9199 113.974 35.6399ZM129.012 22.1999C128.537 19.9599 126.954 18.0399 125.054 16.9199C120.939 14.3599 115.557 15.9599 113.182 20.1199C112.074 22.1999 111.757 24.4399 112.232 26.8399C112.707 29.0799 114.29 30.9999 116.19 32.1199C120.305 34.6799 125.688 33.2399 128.062 29.0799C129.328 26.8399 129.645 24.1199 129.012 22.1999ZM36.409 21.7199C37.2 21.7199 37.992 21.5599 38.783 21.3999C43.374 20.1199 46.065 15.1599 44.957 10.6799C44.007 6.8399 40.524 4.27994 36.725 4.27994C35.934 4.27994 35.301 4.43994 34.351 4.59994C29.76 5.8799 27.069 10.8399 28.177 15.3199C29.127 18.9999 32.451 21.7199 36.409 21.7199Z" fill="#E2001A"></path>
</svg>