<svg width="137" height="52" viewBox="0 0 137 52" fill="none" xmlns="http://www.w3.org/2000/svg">
<g clip-path="url(#clip0_4861_13762)">
<path d="M61.4776 45.2978H58.3565C58.2525 45.2978 58.2004 45.1927 58.2004 45.1402V35.6309C58.2525 35.4733 58.2525 35.2632 58.2004 35.1056C58.0444 34.2124 57.2121 33.6345 56.3278 33.7396C55.4435 33.8972 54.8713 34.7378 54.9753 35.6309V47.5044C54.9753 47.9772 55.3395 48.3975 55.8596 48.45H61.4776C61.5296 48.45 61.5816 48.45 61.6336 48.45C62.4659 48.3975 63.0901 47.662 63.0381 46.8214C63.0381 45.8232 62.3619 45.2453 61.4776 45.2978ZM50.1897 34.5277L41.8668 45.8757C41.6587 46.1384 41.5547 46.4536 41.5547 46.8214C41.5547 47.2942 41.7628 47.8196 42.2309 48.0823C42.9592 48.5551 43.8435 48.3975 44.3637 47.7671L45.9762 45.5605H49.8776V46.8214C49.9296 47.7145 50.6579 48.3975 51.4901 48.345C52.3744 48.345 52.9987 47.6094 52.9987 46.8214V35.5784C52.9987 35.1056 52.7906 34.6327 52.4785 34.37C51.8022 33.7396 50.7619 33.7921 50.1897 34.5277ZM49.8256 42.3557H48.3691C48.317 42.3557 48.265 42.3032 48.265 42.2506L49.8256 40.0966C49.8256 40.0441 49.8256 42.3557 49.8256 42.3557ZM45.6121 35.6309C45.6121 34.7903 44.9359 34.1074 44.1556 34.1074C43.7395 34.1074 43.3233 34.265 43.0632 34.5277L39.526 38.2578C39.474 38.3103 39.422 38.3103 39.37 38.3103C39.3179 38.3103 39.2659 38.3103 39.2659 38.2578L35.7287 34.5277C35.4686 34.265 35.0525 34.0548 34.6363 34.0548C33.804 34.0548 33.1798 34.7378 33.1798 35.5259C33.1798 35.8936 33.3359 36.3139 33.5439 36.5766L37.8614 41.5677L37.9135 46.8214C37.9135 47.662 38.5897 48.345 39.422 48.345C40.2543 48.345 40.9305 47.662 40.9305 46.8214L41.0345 41.6202L45.248 36.6291C45.5081 36.3139 45.6121 35.9462 45.6121 35.6309ZM27.3538 34.0548C23.4525 34.0548 20.2794 37.2596 20.2794 41.1999C20.2794 45.1402 23.4525 48.345 27.3538 48.345C31.2552 48.345 34.4283 45.0877 34.4283 41.1474C34.4283 37.3121 31.2552 34.1074 27.3538 34.0548ZM27.3538 44.9826C25.2211 44.9826 23.5565 43.3014 23.5565 41.1474C23.5565 38.9933 25.2211 37.3121 27.3538 37.3121C29.4865 37.3121 31.1511 38.9933 31.1511 41.1474C31.1511 43.3014 29.4865 44.9826 27.3538 44.9826ZM102 33.7396C101.219 33.7921 100.595 34.4226 100.595 35.1581V41.8303C100.595 41.8829 100.543 41.9354 100.491 41.9354C100.439 41.9354 100.439 41.9354 100.439 41.8829L96.5897 35.0005C96.0175 33.9497 94.665 33.6345 93.6767 34.265C93.1045 34.6327 92.6883 35.3157 92.6363 35.9987V46.9265C92.6883 47.8196 93.4686 48.45 94.2489 48.3975C95.0292 48.345 95.6534 47.7145 95.7054 46.9265V40.2542C95.7054 40.2017 95.7574 40.1491 95.8094 40.1491C95.8614 40.1491 95.8614 40.1491 95.8614 40.2017L99.8148 47.2417C100.335 48.2399 101.583 48.5551 102.572 48.0297C103.248 47.662 103.612 46.979 103.612 46.296V35.2106C103.56 34.37 102.884 33.6871 102 33.7396ZM17.7825 42.5133C19.0309 41.7253 19.8632 40.3593 19.8112 38.8883C19.8112 38.8883 19.8112 38.8883 19.8112 38.8357C19.8632 36.2614 17.7825 34.1074 15.2336 34.0548C13.9852 33.9497 12.6848 34.37 11.8004 35.2632C10.8121 36.2614 10.5 37.5223 10.5 38.8883L10.7081 46.8214C10.7081 47.662 11.3843 48.345 12.2166 48.345C13.0489 48.345 13.7251 47.662 13.7251 46.8214L13.7771 43.0387C13.7771 42.9336 13.8291 42.8811 13.9332 42.8811C13.9332 42.8811 13.9852 42.8811 14.0372 42.8811L17.7305 47.9772C17.9906 48.2399 18.3027 48.345 18.7188 48.345C19.5511 48.345 20.1753 47.662 20.2274 46.8739C20.2274 46.6638 20.1753 46.4536 20.0713 46.1909L17.7825 42.5133ZM15.1296 40.3068C15.0256 40.3068 14.9735 40.3068 14.8695 40.3068C13.9852 40.2542 13.413 39.4662 13.465 38.6781C13.517 37.785 14.2973 37.2071 15.0776 37.2596C15.1816 37.2596 15.2336 37.2596 15.3377 37.2596C16.222 37.3121 16.7942 38.1002 16.7422 38.8883C16.6901 39.7289 15.9099 40.5169 15.1296 40.3068ZM78.0193 43.5641C77.8112 43.5641 77.5511 43.6166 77.291 43.7217L76.0426 44.5623C75.4704 44.93 74.7422 45.1402 74.0139 45.1402C71.8292 45.0351 70.2166 43.1438 70.3206 41.0423C70.4247 38.9933 71.9852 37.4172 74.0139 37.3121C74.7422 37.3121 75.4184 37.5223 76.0426 37.89L77.239 38.7306C77.4471 38.8357 77.6552 38.8883 77.9673 38.8883C78.7996 38.8883 79.4758 38.2053 79.4758 37.3647C79.4758 37.0494 79.3717 36.6291 79.1117 36.3665C77.9152 34.948 76.1466 34.1074 74.222 34.1074C70.3206 34.1074 67.1475 37.3121 67.1475 41.2524C67.1475 45.0351 70.0605 48.1874 73.8058 48.3975C75.8345 48.3975 77.7072 47.5569 79.1117 46.0859C79.3197 45.8232 79.4758 45.508 79.4238 45.0877C79.5798 44.2471 78.8516 43.5641 78.0193 43.5641ZM106.941 33.6871C106.005 33.6871 105.329 34.4751 105.329 35.3157V46.8214C105.329 47.7671 106.109 48.45 106.941 48.45C107.878 48.45 108.554 47.662 108.554 46.8214V35.3157C108.554 34.4226 107.878 33.6871 106.941 33.6871ZM83.2731 34.4751C82.961 34.1599 82.4928 33.9497 82.0247 33.9497C81.0883 33.9497 80.4121 34.37 80.4121 35.3157V46.8214C80.4121 47.7145 81.1404 48.345 81.9726 48.345C82.8049 48.345 83.5332 47.662 83.5852 46.8214V45.5605H87.4865L89.0991 47.7671C89.3592 48.1348 89.8794 48.345 90.3475 48.345C91.2318 48.345 91.8561 47.6094 91.8561 46.8214C91.8561 46.5062 91.752 46.1384 91.544 45.8757L83.2731 34.4751ZM85.1457 42.2506C85.1457 42.3032 85.0937 42.3557 85.0417 42.3557H83.5852V39.9915L85.1457 42.1981C85.1978 42.1981 85.1978 42.1981 85.1457 42.2506ZM119.686 33.7396C118.905 33.7921 118.281 34.4226 118.281 35.1581V41.8303C118.281 41.8829 118.229 41.9354 118.177 41.9354C118.125 41.9354 118.125 41.9354 118.073 41.8829L114.276 35.0005C113.704 33.9497 112.351 33.6345 111.363 34.265C110.791 34.6327 110.374 35.3157 110.322 35.9987V46.9265C110.322 47.8196 111.051 48.5026 111.883 48.5026C112.715 48.5026 113.443 47.7671 113.443 46.9265V40.2542C113.443 40.2017 113.496 40.1491 113.548 40.1491C113.6 40.1491 113.6 40.1491 113.6 40.2017L117.553 47.2417C118.073 48.2399 119.322 48.5551 120.31 48.0297C120.986 47.662 121.35 46.979 121.35 46.296V35.2106C121.246 34.37 120.518 33.6871 119.686 33.7396ZM125.304 35.053C125.304 35.0005 125.304 35.0005 125.304 34.948C125.304 34.5277 124.991 34.4226 124.627 34.4226H124.159C124.003 34.4226 123.951 34.5277 123.951 34.5802V35.9987C123.951 36.1563 124.003 36.2089 124.159 36.2089C124.315 36.2089 124.367 36.1038 124.367 35.9987V35.4733H124.471L124.731 35.9987C124.783 36.1038 124.835 36.2089 124.991 36.2089C125.148 36.2089 125.2 36.1563 125.2 36.0512C125.2 35.9987 125.2 35.9987 125.2 35.9462L124.887 35.4733C125.096 35.5259 125.304 35.2632 125.304 35.053ZM124.679 35.1581H124.367V34.7378H124.679C124.835 34.7378 124.939 34.7903 124.939 34.948C124.939 35.1056 124.835 35.1581 124.679 35.1581ZM124.627 33.6345C123.691 33.6345 122.963 34.4226 122.963 35.3157C122.963 36.2089 123.743 36.9969 124.627 36.9969C125.512 36.9969 126.292 36.2089 126.292 35.3157C126.24 34.4226 125.512 33.6345 124.627 33.6345ZM124.627 36.5766C123.899 36.5766 123.379 36.0512 123.379 35.3157C123.379 34.5802 123.899 34.0548 124.627 34.0548C125.356 34.0548 125.876 34.5802 125.876 35.3157C125.876 35.9987 125.304 36.5766 124.627 36.5766Z" fill="#E2001A"/>
<path d="M79.5275 26.3846C76.1983 23.9153 71.2046 22.4443 66.0548 22.4443C60.9051 22.4443 55.8593 23.9153 52.5822 26.3846C52.2701 26.5947 52.114 26.9625 52.114 27.3828C52.114 28.1183 52.6342 28.6437 53.3625 28.6437C53.6225 28.6437 53.8826 28.5386 54.1427 28.381C56.3795 26.6998 60.697 24.9135 66.1589 24.9135C71.6208 24.9135 75.8862 26.6998 78.123 28.381L78.175 28.4335C78.6952 28.8013 79.5275 28.6962 79.8916 28.1183C80.2037 27.5404 80.0997 26.7523 79.5275 26.3846ZM66.0548 25.4389C61.2692 25.4389 56.7436 26.8574 53.9347 29.2216C53.9347 29.2216 53.9347 29.2216 53.8826 29.2216C53.5705 29.5368 53.5185 30.0622 53.7786 30.43C53.9347 30.6401 54.1427 30.7452 54.4548 30.7452C54.6629 30.7452 54.819 30.6926 54.975 30.535C57.4719 28.4335 61.6333 27.1201 66.0028 27.1201C70.3723 27.1201 74.4817 28.381 77.0306 30.535C77.3947 30.8503 77.9669 30.7977 78.227 30.43C78.5391 30.0622 78.4871 29.4843 78.123 29.2216C75.314 26.91 70.7885 25.4389 66.0548 25.4389ZM50.5535 16.35C50.9176 14.8264 50.0333 13.3028 48.4728 12.83C48.2647 12.7774 48.0046 12.7249 47.7445 12.7249C46.184 12.7249 44.9355 13.9858 44.9355 15.5619C44.9355 17.138 46.184 18.3989 47.7445 18.3989C49.149 18.504 50.2414 17.6109 50.5535 16.35ZM66.0548 20.7631C67.6154 20.7631 68.8638 19.5022 68.8638 17.9261C68.8638 16.35 67.6154 15.0891 66.0548 15.0891C64.4943 15.0891 63.2459 16.35 63.2459 17.9261C63.2459 19.5022 64.4423 20.7631 66.0548 20.7631ZM66.0548 13.5129C67.6154 13.5129 68.8638 12.252 68.8638 10.6759C68.8638 9.09981 67.6154 7.78638 66.0548 7.78638C64.4943 7.78638 63.2459 9.04727 63.2459 10.6234C63.1938 12.252 64.4423 13.5129 66.0548 13.5129ZM57.732 16.0873C56.2234 16.5076 55.3391 18.1362 55.7553 19.6598C56.0674 20.8682 57.2118 21.7088 58.4602 21.7613H58.5122C58.7203 21.7613 58.9804 21.7088 59.2405 21.6562C60.749 21.2359 61.6333 19.6598 61.2692 18.1362C60.9571 16.8753 59.8127 15.9822 58.5122 15.9822C58.2001 15.9822 57.9921 16.0347 57.732 16.0873ZM54.1947 22.5494C54.5589 21.0258 53.6746 19.3971 52.114 19.0294C51.906 18.9768 51.6459 18.9243 51.3858 18.9243C50.9176 18.9243 50.3974 19.0819 49.9293 19.292C49.253 19.6598 48.7849 20.3428 48.6288 21.0258C48.4208 21.8138 48.5248 22.5494 48.9409 23.2323C49.4091 24.1255 50.3454 24.5983 51.3858 24.6509C51.8539 24.6509 52.4261 24.5458 52.8423 24.2831C53.5185 23.9153 54.0387 23.2849 54.1947 22.5494ZM72.8692 21.6037C73.1293 21.6562 73.3373 21.7088 73.6495 21.7088C75.21 21.7088 76.4584 20.3953 76.4584 18.8718C76.4584 17.5583 75.5741 16.455 74.3777 16.1398C74.1176 16.0873 73.9095 16.0347 73.5974 16.0347C72.0369 16.0347 70.7885 17.3482 70.7885 18.9243C70.7364 20.1326 71.6208 21.2885 72.8692 21.6037ZM74.7418 14.6688C74.9499 14.7213 75.21 14.7738 75.5221 14.7738C77.0826 14.7738 78.3311 13.4604 78.3311 11.9368C78.3311 10.6234 77.4468 9.52011 76.2503 9.20488C75.9903 9.15235 75.7822 9.09981 75.4701 9.09981C73.9095 9.09981 72.6611 10.4132 72.6611 11.9894C72.6611 13.1452 73.5454 14.301 74.7418 14.6688ZM82.1284 19.3446C81.7122 19.0819 81.1921 18.9768 80.7239 18.9768C79.1634 18.9768 77.9149 20.2377 77.9149 21.8138C77.9149 22.024 77.9669 22.2867 78.019 22.5494C78.175 23.2849 78.6952 23.9153 79.3194 24.2831C80.6719 25.1237 82.4405 24.5983 83.2208 23.2323C83.5849 22.5494 83.6889 21.8138 83.5329 21.0258C83.2207 20.3953 82.7526 19.7649 82.1284 19.3446ZM87.0701 14.9315C86.914 14.1959 86.3938 13.5655 85.7696 13.1977C84.4172 12.3571 82.6486 12.8825 81.8683 14.2485C81.5042 14.9315 81.4001 15.667 81.5562 16.455C81.7122 17.1906 82.2324 17.821 82.8566 18.1888C84.2091 19.0294 85.9777 18.5565 86.758 17.1906C87.1741 16.455 87.2781 15.5619 87.0701 14.9315ZM56.6396 14.7738C56.8997 14.7738 57.1598 14.7213 57.4199 14.6688C58.9284 14.2485 59.8127 12.6198 59.4486 11.1488C59.1364 9.88787 57.9921 9.04727 56.7436 9.04727C56.4835 9.04727 56.2755 9.09981 55.9634 9.15235C54.4548 9.57265 53.5705 11.2013 53.9347 12.6723C54.2468 13.8807 55.3391 14.7738 56.6396 14.7738Z" fill="#E2001A"/>
</g>
<defs>
<clipPath id="clip0_4861_13762">
<rect width="116" height="44" fill="white" transform="translate(10.5 6)"/>
</clipPath>
</defs>
</svg>
