<svg width="32" height="32" viewBox="0 0 32 32" fill="none" xmlns="http://www.w3.org/2000/svg">
<path d="M30.7043 21.5012C30.4047 20.8334 29.8711 20.2981 29.204 19.996C28.5369 19.694 27.7824 19.6462 27.0825 19.8615H27.0024L22.2601 21.7412C22.1284 21.1835 21.7923 20.6955 21.3181 20.3734C20.8439 20.0513 20.2661 19.9186 19.6988 20.0014H14.6263C10.7944 15.732 6.52223 17.0618 4.39117 18.0017H2.06002C1.79467 18.0017 1.54019 18.107 1.35256 18.2945C1.16493 18.4821 1.05952 18.7364 1.05952 19.0016C1.05952 19.2667 1.16493 19.5211 1.35256 19.7086C1.54019 19.8961 1.79467 20.0014 2.06002 20.0014H4.62129C4.77373 20.0021 4.92431 19.9679 5.06151 19.9014C6.3099 19.1486 7.77913 18.847 9.22337 19.0473C10.6676 19.2475 11.9992 19.9373 12.9955 21.0013C13.1855 21.2013 13.8759 22.0012 14.146 22.0012H19.6287C19.9889 22.0012 20.4091 22.5611 20.4091 23.0011C20.4091 23.441 19.9789 24.0009 19.6287 24.0009H12.3451C11.5047 24.0009 11.3446 24.5509 11.3446 25.0008C11.3446 25.7307 12.015 25.9407 12.5752 25.9407H19.8489C20.416 25.9049 20.9552 25.6824 21.3824 25.308C21.8096 24.9335 22.1006 24.4282 22.21 23.8709L27.6427 21.7412C27.8781 21.6694 28.1317 21.6868 28.355 21.7901C28.5784 21.8934 28.7558 22.0754 28.8533 22.3011C28.9169 22.423 28.9546 22.5566 28.9641 22.6937C28.9737 22.8307 28.9549 22.9683 28.9089 23.0978C28.8629 23.2272 28.7907 23.3458 28.6968 23.4462C28.6029 23.5465 28.4893 23.6264 28.3631 23.681L18.8884 29.0003C18.8884 29.0003 16.5372 30.4301 14.7363 29.8602L2.34015 25.4008C2.09072 25.3107 1.81572 25.3233 1.57558 25.4358C1.33544 25.5483 1.14982 25.7515 1.05952 26.0007C0.96941 26.25 0.982024 26.5248 1.09459 26.7648C1.20715 27.0048 1.41046 27.1903 1.65982 27.2805L14.086 31.76C14.5972 31.9218 15.1306 32.0028 15.6668 31.9999C17.1645 31.9362 18.6227 31.4997 19.9089 30.7301L29.3836 25.4607C30.0751 25.1013 30.5995 24.4871 30.846 23.7482C31.0924 23.0092 31.0416 22.2034 30.7043 21.5012ZM8.49321 8.3029L14.3361 14.5121C14.5236 14.7114 14.7499 14.8701 15.0011 14.9784C15.2524 15.0867 15.5232 15.1424 15.7968 15.142C16.0722 15.1438 16.3449 15.0888 16.598 14.9804C16.851 14.872 17.079 14.7126 17.2676 14.5121L23.1105 8.2929C23.5319 7.86891 23.8712 7.37056 24.111 6.82309C24.4711 5.92888 24.5649 4.94969 24.3811 4.00344C24.241 3.17396 23.8852 2.39585 23.3494 1.74709C22.8136 1.09834 22.1165 0.601721 21.3281 0.307018C20.5398 0.0123142 19.6877 -0.0701242 18.8574 0.0679643C18.0271 0.206053 17.2476 0.559817 16.5972 1.0938C16.3006 1.34006 16.0322 1.61838 15.7968 1.9237C15.562 1.618 15.2935 1.33963 14.9964 1.0938C14.4453 0.641094 13.8002 0.316526 13.1081 0.143597C12.4159 -0.0293331 11.694 -0.0462982 10.9945 0.0939293C10.0482 0.299458 9.18404 0.780442 8.51099 1.47621C7.83793 2.17198 7.38613 3.05136 7.21258 4.00344C7.03378 4.9656 7.13804 5.95894 7.51273 6.86308C7.74652 7.40011 8.07911 7.88851 8.49321 8.3029ZM9.18356 4.3034C9.28057 3.74284 9.54439 3.22452 9.94061 2.81606C10.3368 2.40761 10.847 2.12799 11.4047 2.01369C11.8102 1.92799 12.23 1.93566 12.6322 2.03614C13.0343 2.13662 13.4083 2.32726 13.7258 2.59362C14.0687 2.87593 14.3432 3.23221 14.5286 3.6357C14.714 4.03919 14.8055 4.47941 14.7963 4.92332C14.7963 5.18851 14.9018 5.44283 15.0894 5.63034C15.277 5.81785 15.5315 5.9232 15.7968 5.9232C16.0622 5.9232 16.3167 5.81785 16.5043 5.63034C16.6919 5.44283 16.7973 5.18851 16.7973 4.92332C16.7957 4.48781 16.8908 4.05736 17.076 3.6631C17.2611 3.26884 17.5316 2.92062 17.8679 2.64361C18.1873 2.37707 18.563 2.1864 18.9668 2.08595C19.3706 1.9855 19.7919 1.97789 20.199 2.06368C20.7535 2.17911 21.2605 2.45804 21.6547 2.86443C22.0488 3.27082 22.312 3.78599 22.4101 4.3434C22.5235 4.92092 22.4643 5.51901 22.24 6.06318C22.1025 6.38377 21.9056 6.67552 21.6598 6.92307L15.7968 13.1423L9.99396 6.93307C9.74541 6.68561 9.54522 6.394 9.40367 6.07318C9.16251 5.53407 9.08594 4.93581 9.18356 4.35339V4.3034Z" fill="#E2001A"/>
</svg>
