<svg width="20" height="20" viewBox="0 0 20 20" fill="none" xmlns="http://www.w3.org/2000/svg">
<path d="M16.0188 10.8476C15.057 9.91193 13.882 9.22404 12.5952 8.84324C13.4371 8.28807 14.0775 7.47637 14.4215 6.52857C14.7655 5.58077 14.7947 4.54736 14.5048 3.58165C14.2149 2.61594 13.6213 1.76938 12.8122 1.16756C12.003 0.565742 11.0214 0.240723 10.0129 0.240723C9.00435 0.240723 8.02271 0.565742 7.21355 1.16756C6.4044 1.76938 5.81085 2.61594 5.52096 3.58165C5.23107 4.54736 5.26028 5.58077 5.60426 6.52857C5.94825 7.47637 6.58867 8.28807 7.43053 8.84324C5.83529 9.31341 4.43064 10.278 3.41917 11.5978C2.4077 12.9177 1.84167 14.5246 1.80273 16.1868V17.2418C1.80273 17.7081 1.98802 18.1553 2.31784 18.4851C2.64766 18.8148 3.09499 19 3.56142 19H16.4585C16.9249 19 17.3722 18.8148 17.702 18.4851C18.0318 18.1553 18.2171 17.7081 18.2171 17.2418V15.9583C18.2122 15.0026 18.015 14.0576 17.6374 13.1797C17.2597 12.3017 16.7093 11.5086 16.0188 10.8476ZM6.49256 4.93408C6.49256 4.23858 6.69885 3.5587 7.08535 2.98042C7.47184 2.40214 8.02118 1.95142 8.6639 1.68526C9.30661 1.41911 10.0138 1.34947 10.6961 1.48516C11.3784 1.62084 12.0052 1.95575 12.4971 2.44754C12.989 2.93933 13.324 3.56591 13.4597 4.24804C13.5954 4.93018 13.5258 5.63723 13.2596 6.27978C12.9933 6.92234 12.5425 7.47154 11.9641 7.85793C11.3857 8.24433 10.7056 8.45057 10.0099 8.45057C9.07707 8.45057 8.18241 8.08008 7.52278 7.42061C6.86314 6.76114 6.49256 5.86671 6.49256 4.93408ZM17.0447 17.2418C17.0447 17.3972 16.9829 17.5463 16.873 17.6562C16.763 17.7661 16.6139 17.8279 16.4585 17.8279H3.56142C3.40594 17.8279 3.25683 17.7661 3.14689 17.6562C3.03696 17.5463 2.97519 17.3972 2.97519 17.2418V16.1868C2.97519 12.6293 6.07048 9.6872 9.8751 9.62273C10.8544 9.59653 11.8291 9.76487 12.7428 10.118C13.6565 10.4711 14.491 11.002 15.1981 11.6799C15.7762 12.2335 16.2374 12.8974 16.5546 13.6322C16.8717 14.367 17.0384 15.158 17.0447 15.9583V17.2418Z" fill="#767676" stroke="#767676" stroke-width="0.5"/>
</svg>
