<svg width="20" height="21" viewBox="0 0 20 21" fill="none" xmlns="http://www.w3.org/2000/svg">
<path d="M6.54993 16.4069H13.8298M9.29598 3.4524L3.12419 8.25269C2.71163 8.57357 2.50535 8.73401 2.35674 8.93493C2.2251 9.11291 2.12704 9.31342 2.06736 9.5266C2 9.76726 2 10.0286 2 10.5512V17.1349C2 18.1542 2 18.6638 2.19836 19.0532C2.37285 19.3956 2.65127 19.674 2.99372 19.8485C3.38303 20.0469 3.89267 20.0469 4.91195 20.0469H15.4678C16.4871 20.0469 16.9967 20.0469 17.386 19.8485C17.7285 19.674 18.0069 19.3956 18.1814 19.0532C18.3797 18.6638 18.3797 18.1542 18.3797 17.1349V10.5512C18.3797 10.0286 18.3797 9.76726 18.3124 9.5266C18.2527 9.31342 18.1546 9.11291 18.023 8.93493C17.8744 8.73401 17.6681 8.57357 17.2555 8.25269L11.0837 3.4524C10.764 3.20375 10.6042 3.07942 10.4277 3.03163C10.2719 2.98946 10.1078 2.98946 9.95204 3.03163C9.77553 3.07942 9.61568 3.20375 9.29598 3.4524Z" stroke="#767676" stroke-width="1.28453" stroke-linecap="square" stroke-linejoin="round"/>
</svg>
