<svg width="21" height="20" viewBox="0 0 21 20" fill="none" xmlns="http://www.w3.org/2000/svg">
<path d="M13.834 7.50008V5.00008C13.834 3.15913 12.3416 1.66675 10.5006 1.66675C8.65968 1.66675 7.1673 3.15913 7.1673 5.00008V7.50008M3.49397 8.62672L2.99397 13.9601C2.85181 15.4765 2.78072 16.2347 3.03234 16.8203C3.25338 17.3348 3.64073 17.7601 4.13232 18.0282C4.6919 18.3334 5.45344 18.3334 6.97651 18.3334H14.0248C15.5478 18.3334 16.3094 18.3334 16.8689 18.0282C17.3605 17.7601 17.7479 17.3348 17.9689 16.8203C18.2205 16.2347 18.1495 15.4765 18.0073 13.9601L17.5073 8.62672C17.3872 7.3462 17.3272 6.70595 17.0392 6.22188C16.7856 5.79557 16.4109 5.45434 15.9628 5.24162C15.454 5.00008 14.8109 5.00008 13.5248 5.00008L7.47651 5.00008C6.19037 5.00008 5.54731 5.00008 5.03848 5.24162C4.59035 5.45434 4.21564 5.79557 3.96202 6.22188C3.67404 6.70594 3.61402 7.3462 3.49397 8.62672Z" stroke="#767676" stroke-width="1.5" stroke-linecap="round" stroke-linejoin="round"/>
</svg>
