<svg width="21" height="20" viewBox="0 0 21 20" fill="none" xmlns="http://www.w3.org/2000/svg">
<g clip-path="url(#clip0_4861_13872)">
<path d="M9.66667 12.8333L7.10395 15.4281C6.74649 15.79 6.56775 15.971 6.41413 15.9837C6.28084 15.9948 6.15035 15.9412 6.0633 15.8397C5.96296 15.7227 5.96296 15.4683 5.96296 14.9596V13.6597C5.96296 13.2033 5.58923 12.8731 5.13767 12.8069V12.8069C4.04479 12.6469 3.18648 11.7885 3.0264 10.6957C3 10.5155 3 10.3004 3 9.87037V6C3 4.59987 3 3.8998 3.27248 3.36502C3.51217 2.89462 3.89462 2.51217 4.36502 2.27248C4.8998 2 5.59987 2 7 2H13.1667C14.5668 2 15.2669 2 15.8016 2.27248C16.272 2.51217 16.6545 2.89462 16.8942 3.36502C17.1667 3.8998 17.1667 4.59987 17.1667 6V9.5M17.1667 18.6667L15.353 17.4057C15.098 17.2285 14.9706 17.1399 14.8318 17.077C14.7087 17.0213 14.5792 16.9807 14.4463 16.9562C14.2965 16.9286 14.1413 16.9286 13.8308 16.9286H12.3333C11.3999 16.9286 10.9332 16.9286 10.5767 16.7469C10.2631 16.5871 10.0081 16.3322 9.84832 16.0186C9.66667 15.662 9.66667 15.1953 9.66667 14.2619V12.1667C9.66667 11.2332 9.66667 10.7665 9.84832 10.41C10.0081 10.0964 10.2631 9.84145 10.5767 9.68166C10.9332 9.5 11.3999 9.5 12.3333 9.5H17C17.9334 9.5 18.4001 9.5 18.7567 9.68166C19.0703 9.84145 19.3252 10.0964 19.485 10.41C19.6667 10.7665 19.6667 11.2332 19.6667 12.1667V14.4286C19.6667 15.2051 19.6667 15.5934 19.5398 15.8997C19.3706 16.3081 19.0462 16.6325 18.6378 16.8017C18.3315 16.9286 17.9432 16.9286 17.1667 16.9286V18.6667Z" stroke="#767676" stroke-width="1.5" stroke-linecap="round" stroke-linejoin="round"/>
</g>
<defs>
<clipPath id="clip0_4861_13872">
<rect width="20" height="20" fill="white" transform="translate(0.75)"/>
</clipPath>
</defs>
</svg>
