<svg width="16" height="16" viewBox="0 0 16 16" fill="none" xmlns="http://www.w3.org/2000/svg">
<path d="M10.9847 15.4999C10.2198 15.4936 9.46464 15.3276 8.76791 15.0124C6.68249 14.0789 4.82879 12.6982 3.33868 10.9685C2.24907 9.68716 -1.04478 5.80574 0.395497 2.52435C0.679325 1.89025 1.1083 1.33149 1.64791 0.893024C1.97098 0.630442 2.37717 0.491263 2.7937 0.500425C3.21024 0.509588 3.60989 0.666493 3.92105 0.943027L3.97115 0.999279L5.91866 3.17438C6.21458 3.4458 6.39459 3.82043 6.4214 4.22068C6.44821 4.62093 6.31978 5.01614 6.06269 5.32447C6.04098 5.35446 6.01576 5.38174 5.98754 5.40573L5.09833 6.16201C5.52698 6.97102 6.0504 7.72634 6.65759 8.41211C7.33017 9.17048 8.09847 9.83859 8.94325 10.3997L10.3773 9.14964C10.6612 8.90495 11.0281 8.77774 11.4029 8.79401C11.7776 8.81027 12.1321 8.96878 12.3937 9.23714L14.5228 11.406C14.8304 11.7136 15.0129 12.1241 15.0349 12.5582C15.0568 12.9923 14.9168 13.4191 14.6417 13.7561C14.2217 14.2784 13.6942 14.7047 13.095 15.0062C12.4406 15.3349 11.7173 15.5042 10.9847 15.4999ZM2.73752 1.74931C2.6289 1.7479 2.52298 1.78314 2.43694 1.84932C2.03865 2.16683 1.72111 2.57372 1.51015 3.03687C0.752436 4.73695 1.67923 7.1308 4.26547 10.1559C5.64085 11.7562 7.35084 13.0363 9.27514 13.9061C9.7865 14.142 10.3431 14.2641 10.9064 14.2641C11.4697 14.2641 12.0263 14.142 12.5377 13.9061C12.9726 13.683 13.3581 13.3747 13.6711 12.9998C13.7473 12.8985 13.7842 12.773 13.775 12.6467C13.7658 12.5203 13.7111 12.4016 13.621 12.3123L11.4982 10.1247C11.4572 10.0846 11.4021 10.0621 11.3448 10.0621C11.2874 10.0621 11.2323 10.0846 11.1913 10.1247L9.39412 11.6498C9.2942 11.736 9.16953 11.7884 9.03794 11.7996C8.90635 11.8109 8.77458 11.7803 8.66145 11.7123C7.55702 11.0304 6.5608 10.1877 5.70575 9.21214C4.92315 8.32788 4.26769 7.33918 3.75824 6.27451C3.69881 6.1506 3.68194 6.01059 3.71024 5.87614C3.73854 5.7417 3.81043 5.6203 3.91479 5.53073L5.12964 4.49943C5.16935 4.43427 5.18485 4.35724 5.1734 4.28182C5.16195 4.20641 5.12429 4.13741 5.06701 4.08692L5.01066 4.03066L3.06315 1.86182C2.96903 1.7913 2.85517 1.75196 2.73752 1.74931Z" fill="#767676"></path>
</svg>