<svg width="12" height="12" viewBox="0 0 12 12" fill="none" xmlns="http://www.w3.org/2000/svg">
<path d="M6.10854 6.44799L10.6624 6.46073C10.7844 6.46064 10.9015 6.41206 10.9879 6.32568C11.0743 6.23931 11.1229 6.1222 11.123 6.00014C11.123 5.87807 11.0746 5.76105 10.9884 5.6748C10.9022 5.58855 10.7851 5.54015 10.6631 5.54024L6.10921 5.55992L6.11266 1.02229C6.11633 0.962057 6.10809 0.901713 6.08843 0.8447C6.06877 0.787688 6.03806 0.735124 5.99807 0.690009C5.9173 0.598895 5.80359 0.543655 5.68196 0.536441C5.62173 0.532868 5.56138 0.541195 5.50434 0.560944C5.44729 0.580693 5.39468 0.611477 5.34951 0.651541C5.25827 0.732452 5.20286 0.846245 5.19546 0.967885L5.2082 5.52171L0.670569 5.52516C0.61006 5.52496 0.550091 5.53674 0.494121 5.55982C0.438152 5.58291 0.387291 5.61684 0.344471 5.65966C0.301651 5.70248 0.267721 5.75334 0.244636 5.80931C0.221552 5.86528 0.209772 5.92525 0.209974 5.98576C0.209679 6.04627 0.221368 6.10622 0.244368 6.16215C0.267367 6.21809 0.30122 6.26889 0.343975 6.31165C0.38673 6.3544 0.437539 6.38826 0.493473 6.41126C0.549407 6.43426 0.609359 6.44594 0.669869 6.44565L5.2075 6.4422L5.18783 10.996C5.18753 11.0566 5.19922 11.1165 5.22222 11.1724C5.24522 11.2284 5.27907 11.2792 5.32183 11.3219C5.36458 11.3647 5.41539 11.3985 5.47133 11.4215C5.52726 11.4445 5.58721 11.4562 5.64772 11.4559C5.70823 11.4561 5.7682 11.4444 5.82417 11.4213C5.88014 11.3982 5.931 11.3643 5.97382 11.3214C6.01664 11.2786 6.05057 11.2278 6.07365 11.1718C6.09674 11.1158 6.10852 11.0559 6.10832 10.9953L6.10854 6.44799Z" fill="#767676"></path>
</svg>