<svg width="24" height="25" viewBox="0 0 24 25" fill="none" xmlns="http://www.w3.org/2000/svg">
<g clip-path="url(#clip0_9721_1760)">
<path d="M20.25 8.97347C20.2507 7.58345 19.9 6.21579 19.2305 4.99753C18.5611 3.77927 17.5945 2.74993 16.4207 2.00509C15.2469 1.26026 13.9038 0.824096 12.5162 0.737114C11.1287 0.650133 9.74167 0.915153 8.48398 1.50756C7.22629 2.09997 6.13873 3.00055 5.32232 4.12567C4.5059 5.25078 3.98711 6.56393 3.81412 7.94315C3.64113 9.32238 3.81955 10.7229 4.33282 12.0148C4.84609 13.3066 5.67756 14.4478 6.75 15.3324V23.9709C6.75074 24.1189 6.79529 24.2634 6.87804 24.3862C6.96079 24.509 7.07804 24.6045 7.215 24.6607C7.35158 24.7182 7.50212 24.7339 7.64761 24.7058C7.7931 24.6778 7.92703 24.6073 8.0325 24.5033L12 20.529L15.9675 24.5033C16.0376 24.5728 16.1207 24.6278 16.2121 24.6651C16.3034 24.7024 16.4013 24.7213 16.5 24.7207C16.5984 24.7233 16.696 24.7027 16.785 24.6607C16.922 24.6045 17.0392 24.509 17.122 24.3862C17.2047 24.2634 17.2493 24.1189 17.25 23.9709V15.3324C18.1877 14.5589 18.9429 13.5878 19.4616 12.4885C19.9802 11.3892 20.2494 10.1889 20.25 8.97347ZM5.25 8.97347C5.25 7.63868 5.64588 6.33387 6.38758 5.22403C7.12928 4.11419 8.18349 3.24917 9.41689 2.73837C10.6503 2.22757 12.0075 2.09392 13.3169 2.35432C14.6262 2.61473 15.829 3.25749 16.773 4.20133C17.717 5.14517 18.3598 6.3477 18.6203 7.65684C18.8808 8.96599 18.7471 10.323 18.2362 11.5561C17.7253 12.7893 16.8601 13.8433 15.7501 14.5849C14.6401 15.3265 13.335 15.7223 12 15.7223C10.2098 15.7223 8.4929 15.0113 7.22703 13.7456C5.96116 12.48 5.25 10.7634 5.25 8.97347ZM15.75 22.1637L13.0575 19.4717C12.7765 19.1923 12.3963 19.0355 12 19.0355C11.6037 19.0355 11.2235 19.1923 10.9425 19.4717L8.25 22.1637V16.3147C9.41013 16.9107 10.6957 17.2216 12 17.2216C13.3043 17.2216 14.5899 16.9107 15.75 16.3147V22.1637Z" fill="currentColor"/>
<path d="M12 14.2209C10.9616 14.2209 9.94662 13.913 9.08326 13.3362C8.2199 12.7593 7.54699 11.9393 7.14963 10.98C6.75227 10.0207 6.64831 8.96512 6.85088 7.94672C7.05345 6.92832 7.55347 5.99286 8.28769 5.25864C9.02192 4.52441 9.95738 4.0244 10.9758 3.82183C11.9942 3.61925 13.0498 3.72322 14.0091 4.12058C14.9684 4.51794 15.7883 5.19085 16.3652 6.05421C16.9421 6.91756 17.25 7.9326 17.25 8.97095C17.25 10.3633 16.6969 11.6987 15.7123 12.6833C14.7277 13.6678 13.3924 14.2209 12 14.2209ZM12 5.22095C11.2583 5.22095 10.5333 5.44088 9.91661 5.85294C9.29993 6.26499 8.81928 6.85066 8.53545 7.53589C8.25162 8.22111 8.17736 8.97511 8.32206 9.70254C8.46675 10.43 8.8239 11.0982 9.34835 11.6226C9.8728 12.147 10.541 12.5042 11.2684 12.6489C11.9958 12.7936 12.7498 12.7193 13.4351 12.4355C14.1203 12.1517 14.706 11.671 15.118 11.0543C15.5301 10.4377 15.75 9.71263 15.75 8.97095C15.75 7.97639 15.3549 7.02256 14.6517 6.3193C13.9484 5.61604 12.9946 5.22095 12 5.22095Z" fill="currentColor"/>
</g>
<defs>
<clipPath id="clip0_9721_1760">
<rect width="24" height="24" fill="currentColor"/> transform="translate(0 0.720947)"/>
</clipPath>
</defs>
</svg>
