<svg width="32" height="32" viewBox="0 0 32 32" fill="none" xmlns="http://www.w3.org/2000/svg">
<path d="M27.7161 26.314L21.7559 20.3661C23.3923 18.3858 24.2033 15.8535 24.0209 13.2931C23.8386 10.7328 22.6768 8.34038 20.7761 6.61099C18.8754 4.8816 16.3812 3.94761 13.8096 4.00227C11.2381 4.05694 8.78598 5.09608 6.96078 6.90467C5.13559 8.71326 4.07699 11.1529 4.00404 13.7186C3.93109 16.2844 4.84937 18.78 6.56887 20.689C8.28837 22.5979 10.6775 23.7741 13.2418 23.9742C15.8061 24.1743 18.3494 23.3829 20.3453 21.7639L26.3055 27.7117C26.4916 27.8964 26.7434 28 27.0058 28C27.2682 28 27.52 27.8964 27.7061 27.7117C27.8925 27.5273 27.9981 27.2768 28 27.0149C28.0018 26.753 27.8998 26.501 27.7161 26.314ZM14.1069 22.0514C12.5352 22.0514 10.9987 21.5862 9.69185 20.7148C8.38498 19.8434 7.3664 18.6048 6.76492 17.1557C6.16343 15.7066 6.00606 14.1121 6.31269 12.5737C6.61933 11.0353 7.3762 9.62227 8.4876 8.51317C9.599 7.40407 11.015 6.64877 12.5566 6.34277C14.0981 6.03677 15.696 6.19382 17.1481 6.79406C18.6002 7.3943 19.8414 8.41077 20.7146 9.71493C21.5878 11.0191 22.0539 12.5524 22.0539 14.1209C22.0539 16.2242 21.2166 18.2413 19.7263 19.7286C18.2359 21.2158 16.2146 22.0514 14.1069 22.0514Z" fill="currentColor"/>
</svg>
