<svg width="12" height="12" viewBox="0 0 12 12" fill="none" xmlns="http://www.w3.org/2000/svg">
<path d="M6.6 6.105L7.95 7.455C8.06 7.565 8.115 7.7026 8.115 7.8678C8.115 8.0326 8.06 8.175 7.95 8.295C7.83 8.415 7.6876 8.475 7.5228 8.475C7.3576 8.475 7.215 8.415 7.095 8.295L5.82 7.02C5.68 6.88 5.575 6.725 5.505 6.555C5.435 6.385 5.4 6.2 5.4 6V4.2C5.4 4.03 5.4576 3.8874 5.5728 3.7722C5.6876 3.6574 5.83 3.6 6 3.6C6.17 3.6 6.3126 3.6574 6.4278 3.7722C6.5426 3.8874 6.6 4.03 6.6 4.2V6.105ZM6 12C5.17 12 4.39 11.8424 3.66 11.5272C2.93 11.2124 2.295 10.785 1.755 10.245C1.215 9.705 0.7876 9.07 0.4728 8.34C0.1576 7.61 0 6.83 0 6C0 5.17 0.1576 4.39 0.4728 3.66C0.7876 2.93 1.215 2.295 1.755 1.755C2.295 1.215 2.93 0.7874 3.66 0.4722C4.39 0.1574 5.17 0 6 0C6.83 0 7.61 0.1574 8.34 0.4722C9.07 0.7874 9.705 1.215 10.245 1.755C10.785 2.295 11.2124 2.93 11.5272 3.66C11.8424 4.39 12 5.17 12 6C12 6.83 11.8424 7.61 11.5272 8.34C11.2124 9.07 10.785 9.705 10.245 10.245C9.705 10.785 9.07 11.2124 8.34 11.5272C7.61 11.8424 6.83 12 6 12ZM6 10.8C7.34 10.8 8.475 10.335 9.405 9.405C10.335 8.475 10.8 7.34 10.8 6C10.8 4.66 10.335 3.525 9.405 2.595C8.475 1.665 7.34 1.2 6 1.2C4.66 1.2 3.525 1.665 2.595 2.595C1.665 3.525 1.2 4.66 1.2 6C1.2 7.34 1.665 8.475 2.595 9.405C3.525 10.335 4.66 10.8 6 10.8Z" fill="#666666"/>
</svg>
