<svg width="578" height="139" viewBox="0 0 578 139" fill="none" xmlns="http://www.w3.org/2000/svg">
<path d="M44.2995 64.9901H33.5447L20.7414 39.3695H9.21839V64.9901H0V4.18374H23.5581C35.0811 4.18374 42.4217 11.6137 42.4217 21.9474C42.4217 30.6584 37.1296 36.2096 30.3012 38.0884L44.2995 64.9901ZM33.2033 22.0328C33.2033 16.0547 29.0209 12.4678 22.8753 12.4678H9.21839V31.5125H22.8753C29.0209 31.5125 33.2033 28.011 33.2033 22.0328Z" fill="#E2001A"/>
<path d="M96.5804 34.5869C96.5804 47.3119 96.4096 53.3754 90.4348 59.3536C86.5084 63.2821 81.3871 65.5025 74.7294 65.5025C68.0716 65.5025 62.9503 63.2821 59.024 59.3536C53.0491 53.3754 52.8784 47.3119 52.8784 34.5869C52.8784 21.862 53.0491 15.7984 59.024 9.82029C62.9503 5.89179 68.0716 3.67133 74.7294 3.67133C81.3871 3.67133 86.5084 5.89179 90.4348 9.82029C96.4096 15.7984 96.5804 21.862 96.5804 34.5869ZM87.362 34.5869C87.362 22.5452 86.8498 18.7875 83.777 15.6276C81.4724 13.2364 78.3996 11.8699 74.7294 11.8699C71.0591 11.8699 67.9863 13.2364 65.6817 15.6276C62.6942 18.8729 62.0967 22.5452 62.0967 34.5869C62.0967 46.6286 62.6942 50.2155 65.6817 53.4608C67.9863 55.8521 71.0591 57.3039 74.7294 57.3039C78.3996 57.3039 81.4724 55.8521 83.777 53.4608C86.8498 50.3009 87.362 46.6286 87.362 34.5869Z" fill="#E2001A"/>
<path d="M147.514 4.18374L129.333 39.9673V64.9901H120.114V39.9673L101.934 4.18374H112.006L124.724 30.9146L137.442 4.18374H147.514Z" fill="#E2001A"/>
<path d="M197.599 64.9901H187.783L183.601 52.7776H159.616L155.434 64.9901H145.618L167.895 4.18374H175.321L197.599 64.9901ZM181.04 44.9206L171.822 17.9335L162.347 44.9206H181.04Z" fill="#E2001A"/>
<path d="M244.715 64.9901H206.22V4.18374H215.438V56.7061H244.715V64.9901Z" fill="#E2001A"/>
<path d="M317.05 46.7994C314.916 58.8412 306.466 65.5025 295.37 65.5025C288.712 65.5025 283.591 63.2821 279.664 59.3536C273.775 53.3754 273.519 47.3119 273.519 34.5869C273.519 21.862 273.775 15.7984 279.664 9.82029C283.591 5.89179 288.712 3.67133 295.37 3.67133C306.551 3.67133 314.916 10.3327 317.05 22.3744H307.661C306.295 16.1401 302.113 11.8699 295.37 11.8699C291.7 11.8699 288.627 13.2364 286.408 15.6276C283.335 18.8729 282.737 22.5452 282.737 34.5869C282.737 46.6286 283.335 50.3009 286.408 53.5462C288.627 55.9375 291.7 57.3039 295.37 57.3039C302.113 57.3039 306.381 53.0338 307.832 46.7994H317.05Z" fill="#E2001A"/>
<path d="M373.228 64.9901H363.412L359.23 52.7776H335.245L331.062 64.9901H321.247L343.524 4.18374H350.95L373.228 64.9901ZM356.669 44.9206L347.451 17.9335L337.976 44.9206H356.669Z" fill="#E2001A"/>
<path d="M427.599 64.9901H419.149L391.067 22.2036V64.9901H381.849V4.18374H390.299L418.381 46.8848V4.18374H427.599V64.9901Z" fill="#E2001A"/>
<path d="M452.667 64.9901H443.448V4.18374H452.667V64.9901Z" fill="#E2001A"/>
<path d="M514.289 64.9901H505.838L477.756 22.2036V64.9901H468.538V4.18374H476.988L505.07 46.8848V4.18374H514.289V64.9901Z" fill="#E2001A"/>
<path d="M562.811 18.5494C562.811 28.7976 554.515 37.0987 544.272 37.0987C534.029 37.0987 525.733 28.7976 525.733 18.5494C525.733 8.3011 534.029 0 544.272 0C554.515 0 562.811 8.3011 562.811 18.5494ZM559.073 18.5494C559.073 10.0945 552.569 3.43317 544.272 3.43317C535.976 3.43317 529.42 10.0945 529.42 18.5494C529.42 27.0042 535.976 33.6656 544.272 33.6656C552.569 33.6656 559.073 27.0042 559.073 18.5494ZM552.313 28.5414H548.164L544.067 20.599H541.507V28.5414H537.819V8.50606H545.348C549.137 8.50606 551.801 11.3243 551.801 14.655C551.801 17.4733 550.059 19.318 547.857 20.0866L552.313 28.5414ZM548.164 14.655C548.164 12.9641 546.833 11.6318 544.887 11.6318H541.507V17.6783H544.887C546.833 17.6783 548.164 16.346 548.164 14.655Z" fill="#E2001A"/>
<path d="M449.006 129.042H442.832V88.313H449.006V129.042ZM473.305 129.042H465.472L449.064 107.705L464.271 88.313H471.875L456.21 107.533L473.305 129.042Z" fill="#E2001A"/>
<path d="M506.636 129.042H500.461V93.8617H488.741V106.732C488.741 123.836 484.625 129.042 476.449 129.042H473.876V123.493H474.963C479.479 123.493 482.738 120.633 482.738 105.874V88.313H506.636V129.042Z" fill="#E2001A"/>
<path d="M543.614 88.313L529.035 122.406C527.434 126.124 524.861 129.042 520.459 129.042H516.228V123.493H519.144C521.602 123.493 522.975 122.406 523.889 120.232L525.319 116.915L512.112 88.313H518.63L528.349 110.107L537.096 88.313H543.614Z" fill="#E2001A"/>
<path d="M578 116.686C578 124.008 573.083 129.042 565.136 129.042H549.3V88.313H575.484V93.8617H555.474V104.33H565.136C573.026 104.33 578 109.364 578 116.686ZM571.825 116.686C571.825 112.51 569.195 109.879 564.736 109.879H555.474V123.493H564.736C569.195 123.493 571.825 120.919 571.825 116.686Z" fill="#E2001A"/>
<path d="M36.2652 116.691H19.5709V111.256H36.2652V116.691Z" fill="#D9D9D9"/>
<path d="M60.3792 129.847H54.5477V95.4682L46.6008 102.447V95.9831L54.5477 89.1187H60.3792V129.847Z" fill="#D9D9D9"/>
<path d="M97.5527 118.521C97.5527 125.786 92.2929 130.191 85.7752 130.191C79.3148 130.191 74.055 125.786 74.055 118.521V100.445C74.055 93.1801 79.3148 88.7754 85.7752 88.7754C92.2929 88.7754 97.5527 93.1801 97.5527 100.445V118.521ZM91.7211 118.35V100.617C91.7211 96.7267 89.4914 93.9809 85.7752 93.9809C82.1162 93.9809 79.8865 96.7267 79.8865 100.617V118.35C79.8865 122.239 82.1162 124.985 85.7752 124.985C89.4914 124.985 91.7211 122.239 91.7211 118.35Z" fill="#D9D9D9"/>
<path d="M145.875 122.411C145.875 127.331 142.33 130.248 137.871 130.248C133.411 130.248 129.867 127.331 129.867 122.411V116.633C129.867 111.714 133.411 108.797 137.871 108.797C142.33 108.797 145.875 111.714 145.875 116.633V122.411ZM120.376 102.333C120.376 107.252 116.831 110.112 112.372 110.112C107.912 110.112 104.368 107.252 104.368 102.333V96.5551C104.368 91.6356 107.912 88.7182 112.372 88.7182C116.831 88.7182 120.376 91.6356 120.376 96.5551V102.333ZM137.013 89.1187L117.86 129.847H113.172L132.382 89.1187H137.013ZM141.472 122.239V116.805C141.472 114.231 140.329 112.686 137.871 112.686C135.412 112.686 134.269 114.174 134.269 116.805V122.239C134.269 124.871 135.412 126.358 137.871 126.358C140.329 126.358 141.472 124.814 141.472 122.239ZM115.974 102.161V96.7267C115.974 94.1526 114.83 92.6081 112.372 92.6081C109.913 92.6081 108.77 94.0954 108.77 96.7267V102.161C108.77 104.792 109.913 106.222 112.372 106.222C114.83 106.222 115.974 104.735 115.974 102.161Z" fill="#D9D9D9"/>
<path d="M195.902 117.663C194.473 125.729 188.813 130.191 181.38 130.191C176.921 130.191 173.491 128.703 170.861 126.072C166.916 122.068 166.744 118.006 166.744 109.483C166.744 100.96 166.916 96.8983 170.861 92.8941C173.491 90.2627 176.921 88.7754 181.38 88.7754C188.87 88.7754 194.473 93.2373 195.902 101.303H189.613C188.698 97.1271 185.897 94.267 181.38 94.267C178.922 94.267 176.864 95.1822 175.377 96.7839C173.319 98.9576 172.919 101.417 172.919 109.483C172.919 117.549 173.319 120.008 175.377 122.182C176.864 123.784 178.922 124.699 181.38 124.699C185.897 124.699 188.755 121.839 189.727 117.663H195.902Z" fill="#D9D9D9"/>
<path d="M210.477 129.847H204.302V89.1187H210.477V129.847ZM234.775 129.847H226.942L210.534 108.511L225.742 89.1187H233.346L217.681 108.339L234.775 129.847Z" fill="#D9D9D9"/>
<path d="M269.879 129.847H263.704V100.273L245.466 129.847H239.863V89.1187H246.038V118.636L264.219 89.1187H269.879V129.847Z" fill="#D9D9D9"/>
<path d="M290.971 94.6674V103.763C290.971 111.542 290 118.578 286.969 124.299H302.292V94.6674H290.971ZM285.026 89.1187H308.466V124.299H313.269V139H307.208V129.847H282.51V139H276.507V124.299H280.052C283.596 118.807 285.026 110.799 285.026 101.131V89.1187Z" fill="#D9D9D9"/>
<path d="M326.887 129.847H320.712V89.1187H326.887V129.847ZM351.185 129.847H343.352L326.944 108.511L342.152 89.1187H349.756L334.09 108.339L351.185 129.847Z" fill="#D9D9D9"/>
<path d="M387.626 129.847H381.165L378.307 121.667H362.241L359.383 129.847H352.865L367.787 89.1187H372.761L387.626 129.847ZM376.649 116.405L370.417 98.3284L364.014 116.405H376.649Z" fill="#D9D9D9"/>
<rect x="410" y="88" width="6" height="42" fill="#E2001A"/>
</svg>
