<svg width="32" height="32" viewBox="0 0 32 32" fill="none" xmlns="http://www.w3.org/2000/svg">
<g clip-path="url(#clip0_5262_2502)">
<path d="M24.04 17.8916C23.0791 17.9112 22.1573 18.2727 21.4426 18.9104C20.7279 19.5481 20.2679 20.4194 20.1464 21.3655C20.025 22.3116 20.2502 23.2695 20.781 24.0646C21.3117 24.8597 22.1128 25.439 23.038 25.6971C22.9915 26.8838 22.4719 28.0035 21.5934 28.81C20.7149 29.6165 19.5495 30.0437 18.3537 29.9975C17.1578 29.9514 16.0294 29.4357 15.2167 28.564C14.404 27.6922 13.9735 26.5358 14.02 25.3491V18.8859H14.1503C16.5996 18.6844 18.8802 17.5669 20.5304 15.7595C22.1805 13.9521 23.0769 11.59 23.038 9.15143V2.97664C23.038 2.1855 22.7213 1.42677 22.1576 0.867349C21.5939 0.307931 20.8293 -0.00634766 20.032 -0.00634766C19.7663 -0.00634766 19.5114 0.0984118 19.3235 0.284885C19.1356 0.471358 19.03 0.724269 19.03 0.987982C19.03 1.25169 19.1356 1.50461 19.3235 1.69108C19.5114 1.87755 19.7663 1.98231 20.032 1.98231C20.2978 1.98231 20.5526 2.08707 20.7405 2.27354C20.9285 2.46002 21.034 2.71293 21.034 2.97664V9.15143C21.0743 11.0849 20.3719 12.9612 19.0694 14.3997C17.7668 15.8381 15.9616 16.731 14.02 16.8973C12.9918 16.9654 11.9605 16.823 10.9901 16.4789C10.0197 16.1348 9.13096 15.5963 8.37917 14.8969C7.62739 14.1975 7.02858 13.3521 6.61998 12.4133C6.21138 11.4745 6.00171 10.4624 6.00401 9.43978V2.97664C6.00401 2.71293 6.10957 2.46002 6.29748 2.27354C6.4854 2.08707 6.74026 1.98231 7.00601 1.98231C7.27175 1.98231 7.52662 1.87755 7.71453 1.69108C7.90244 1.50461 8.00801 1.25169 8.00801 0.987982C8.00801 0.724269 7.90244 0.471358 7.71453 0.284885C7.52662 0.0984118 7.27175 -0.00634766 7.00601 -0.00634766C6.20876 -0.00634766 5.44418 0.307931 4.88044 0.867349C4.31671 1.42677 4 2.1855 4 2.97664V9.43978C3.99817 11.6869 4.80453 13.861 6.274 15.5708C7.74348 17.2805 9.7796 18.4138 12.016 18.7666V25.3491C11.9682 27.0632 12.6085 28.726 13.7961 29.9716C14.9837 31.2172 16.6213 31.9437 18.3487 31.9912C20.076 32.0386 21.7516 31.4032 23.0069 30.2247C24.2621 29.0462 24.9942 27.4211 25.042 25.707C25.9754 25.4556 26.7856 24.8777 27.3233 24.0801C27.8611 23.2824 28.09 22.3187 27.9679 21.3666C27.8459 20.4146 27.3811 19.5385 26.6592 18.8998C25.9373 18.2612 25.0071 17.9031 24.04 17.8916ZM24.04 23.8576C23.6437 23.8576 23.2562 23.7409 22.9267 23.5224C22.5971 23.3039 22.3402 22.9933 22.1886 22.6299C22.0369 22.2665 21.9972 21.8667 22.0745 21.4809C22.1519 21.0952 22.3427 20.7408 22.623 20.4627C22.9032 20.1846 23.2603 19.9952 23.6491 19.9185C24.0378 19.8417 24.4407 19.8811 24.8069 20.0316C25.1731 20.1821 25.4861 20.437 25.7063 20.7641C25.9265 21.0911 26.044 21.4756 26.044 21.8689C26.044 22.3963 25.8329 22.9021 25.4571 23.2751C25.0812 23.648 24.5715 23.8576 24.04 23.8576Z" fill="#E2001A"/>
</g>
<defs>
<clipPath id="clip0_5262_2502">
<rect width="32" height="32" fill="white" transform="translate(0 -0.00634766)"/>
</clipPath>
</defs>
</svg>
