<?xml version="1.0" encoding="utf-8"?><svg viewBox="0 0 578 139" xmlns="http://www.w3.org/2000/svg" xmlns:xlink="http://www.w3.org/1999/xlink"><style>:root>svg{display:none}:root>svg:target{display:block}</style><svg fill="none" viewBox="0 0 19 14" id="burger-menu" xmlns="http://www.w3.org/2000/svg"><path d="M1 7h11.5M1 1h17.25M1 13h17.25" stroke="#E2001A" stroke-width="1.5" stroke-linecap="round" stroke-linejoin="round"/></svg><svg fill="none" viewBox="0 0 32 32" id="cake" xmlns="http://www.w3.org/2000/svg"><path d="m30.942 24.388-1.196-6.027a3.021 3.021 0 0 0-.801-1.513 2.982 2.982 0 0 0-1.49-.828v-1.085c0-1.065-.42-2.087-1.167-2.84a3.968 3.968 0 0 0-2.818-1.177l-1.136-.06a4.025 4.025 0 0 0-1.103-1.84 3.975 3.975 0 0 0-1.886-1.003 4.02 4.02 0 0 0-1.394-2.16 3.964 3.964 0 0 0-4.841-.07 4.019 4.019 0 0 0-1.455 2.12h-.14c-.883 0-1.74.296-2.438.842a4.02 4.02 0 0 0-1.417 2.17h-.13c-1.057 0-2.07.424-2.818 1.177a4.035 4.035 0 0 0-1.167 2.841v1.085a2.982 2.982 0 0 0-1.49.828 3.021 3.021 0 0 0-.801 1.513L.058 24.388a3.038 3.038 0 0 0 .618 2.502c.28.345.633.622 1.033.813.4.191.836.29 1.278.29h25.026a2.97 2.97 0 0 0 2.31-1.103 3.024 3.024 0 0 0 .619-2.502ZM7.53 12.926h.996a.992.992 0 0 0 .705-.294c.187-.188.292-.444.292-.71 0-.533.21-1.044.583-1.42a1.984 1.984 0 0 1 2.818 0c.374.376.584.887.584 1.42 0 .266.105.522.291.71a.992.992 0 0 0 1.41 0c.186-.188.291-.444.291-.71a4.044 4.044 0 0 0-.523-1.975 4.002 4.002 0 0 0-1.42-1.46c.09-.41.307-.782.618-1.063a1.985 1.985 0 0 1 2.313-.247c.362.208.651.526.825.908a3.974 3.974 0 0 0-1.265.663 1.007 1.007 0 0 0 .499 1.748.99.99 0 0 0 .716-.161 1.982 1.982 0 0 1 2.434-.011c.348.267.599.641.714 1.066.105.437.353.826.703 1.105s.784.43 1.23.432h1.126c.528 0 1.035.211 1.409.588.373.377.583.888.583 1.42v1.005H5.538v-1.005c0-.532.21-1.043.583-1.42.374-.377.88-.588 1.41-.588ZM4.183 17.95h22.634a.992.992 0 0 1 .643.22c.182.147.307.353.354.584l.637 3.214H2.549l.638-3.214a.991.991 0 0 1 .996-.804Zm24.597 7.664a.996.996 0 0 1-.767.372H2.987a.99.99 0 0 1-.767-.372 1.007 1.007 0 0 1-.209-.834l.16-.803H28.83l.159.803a1.013 1.013 0 0 1-.21.834Z" fill="#E2001A"/></svg><svg fill="none" viewBox="0 0 20 20" id="cart" xmlns="http://www.w3.org/2000/svg"><path d="M13.217 7.318v-2.52c0-1.856-1.44-3.36-3.217-3.36-1.776 0-3.217 1.504-3.217 3.36v2.52M3.24 8.454l-.483 5.376c-.137 1.528-.206 2.292.037 2.883.213.518.587.947 1.062 1.217.54.308 1.275.308 2.744.308h6.802c1.47 0 2.205 0 2.745-.308.474-.27.848-.699 1.061-1.217.243-.59.174-1.355.037-2.883l-.482-5.376c-.116-1.291-.174-1.937-.452-2.424a2.454 2.454 0 0 0-1.039-.989c-.49-.243-1.111-.243-2.353-.243H7.082c-1.241 0-1.862 0-2.353.243a2.454 2.454 0 0 0-1.039.989c-.278.487-.336 1.133-.451 2.424Z" stroke="#767676" stroke-width="1.2" stroke-linecap="round" stroke-linejoin="round"/></svg><svg fill="none" viewBox="0 0 8 6" id="checked" xmlns="http://www.w3.org/2000/svg"><path d="M2.563 5.625a.66.66 0 0 1-.453-.181L.406 3.8a.611.611 0 0 1 .034-.848.663.663 0 0 1 .88-.033l1.243 1.2L6.645.182A.66.66 0 0 1 7.102 0a.66.66 0 0 1 .456.182.624.624 0 0 1 .192.443.606.606 0 0 1-.192.444L3.023 5.444a.65.65 0 0 1-.46.181Z" fill="#fff"/></svg><svg fill="none" viewBox="0 0 13 15" id="close" xmlns="http://www.w3.org/2000/svg"><path d="m1 2.052 11 11M12 1.948l-11 11" stroke="#E2001A" stroke-width="2" stroke-linecap="round"/></svg><svg fill="none" viewBox="0 0 6 8" id="close--sm" xmlns="http://www.w3.org/2000/svg"><path fill="currentColor" d="M3.477 3.998 5.9 1.388a.4.4 0 0 0 .1-.263.4.4 0 0 0-.101-.265.33.33 0 0 0-.244-.11c-.091 0-.18.04-.244.11L3.007 3.487.602.878A.4.4 0 0 0 .495.79a.32.32 0 0 0-.38.057.399.399 0 0 0-.03.527L2.51 3.983.104 6.592a.4.4 0 0 0 0 .53q.049.052.112.08a.32.32 0 0 0 .376-.08l2.404-2.61L5.401 7.14q.048.053.112.081a.32.32 0 0 0 .376-.081.4.4 0 0 0 0-.53z"/></svg><svg fill="none" viewBox="0 0 16 16" id="copy" xmlns="http://www.w3.org/2000/svg"><path d="M14 7.496V12a2 2 0 0 1-2 2H4a2 2 0 0 1-2-2V3a2 2 0 0 1 2-2h3.48" stroke="#666" stroke-linecap="round"/><path d="M7.645 6.648a.498.498 0 0 0 .001.706.502.502 0 0 0 .709-.002l-.71-.704Zm7.22-6.013a.5.5 0 0 0-.502-.498l-4.51.01a.5.5 0 1 0 .003.997l4.008-.008.008 3.992a.5.5 0 0 0 1.002-.002l-.009-4.49Zm-6.51 6.717L14.719.988l-.71-.704-6.364 6.364.71.704Z" fill="#666"/></svg><svg fill="none" viewBox="0 0 33 32" id="dumbbell" xmlns="http://www.w3.org/2000/svg"><g clip-path="url(#aha)"><path d="M31.5 14.994h-2v-2a1 1 0 0 0-1-1v-3a1 1 0 0 0-1-1h-4a1 1 0 0 0-1 1v6h-12v-6a1 1 0 0 0-1-1h-4a1 1 0 0 0-1 1v3a1 1 0 0 0-1 1v2h-2a1 1 0 1 0 0 2h2v1.73a1 1 0 0 0 1 1v3.27a1 1 0 0 0 1 1h4a1 1 0 0 0 1-1v-6h12v6a1 1 0 0 0 1 1h4a1 1 0 0 0 1-1v-3a1 1 0 0 0 1-1v-2h2a1 1 0 0 0 0-2Zm-23 6a1 1 0 0 1-2 0v-10a1 1 0 1 1 2 0v10Zm18 0a1 1 0 0 1-2 0v-10a1 1 0 1 1 2 0v10Z" fill="#E2001A"/></g><defs><clipPath id="aha"><path fill="#fff" transform="translate(.5 -.006)" d="M0 0h32v32H0z"/></clipPath></defs></svg><svg fill="none" viewBox="0 0 89 94" id="email-discount" xmlns="http://www.w3.org/2000/svg"><g filter="url(#aia)"><path d="M4.439 37.456 38.922 9.134a5.185 5.185 0 0 1 6.155-.322l37.255 24.562 2.643 50.437-77.893 4.082L4.44 37.456Z" fill="#808285"/><path d="m10.559 71.903-2.291-43.71L37.555 3.404a4.852 4.852 0 0 1 5.903-.31l31.718 21.592L77.467 68.4l-66.908 3.507v-.004Z" fill="#EBEBEB"/><g filter="url(#aib)"><rect x="8" y="20" width="71" height="43" rx="2" transform="rotate(-3 8 20)" fill="#F6F6F6"/></g><path d="m24.122 44.266-7.86.412-.194-3.69 7.861-.413.194 3.691Zm11.174 4.654-3.93.206-.675-12.87-3.477 3.354-.22-4.194 3.477-3.355 3.93-.206.895 17.065Zm15.553-6.656c.108 2.062-.142 3.252-1.346 4.59-.704.781-1.96 1.568-3.878 1.669-1.917.1-3.346-.57-4.128-1.274-1.286-1.159-1.527-2.54-1.688-3.781l3.93-.206c.18 1.12.694 1.766 1.7 1.713.48-.025.785-.161 1.08-.489.341-.378.452-1.009.4-2.015-.1-1.894-.774-2.387-1.733-2.337-1.15.06-1.398.842-1.542 1.306l-3.619.19-.526-10.042 10.401-.545.186 3.547-6.83.358.138 2.636c.322-.281 1.211-.736 2.266-.791 1.486-.078 2.638.366 3.37 1.025 1.463 1.317 1.735 2.84 1.82 4.447Zm20.646 1.562c.12 2.277-1.551 3.422-3.444 3.521-1.894.1-3.675-.865-3.794-3.142l-.12-2.276c-.119-2.277 1.552-3.422 3.445-3.522 1.894-.099 3.674.865 3.794 3.142l.119 2.277Zm-11.586-7.828c.12 2.277-1.55 3.422-3.444 3.52-1.893.1-3.674-.864-3.794-3.14l-.119-2.278c-.12-2.277 1.551-3.422 3.444-3.52 1.894-.1 3.675.864 3.794 3.14l.12 2.278Zm7.24-5.86-7.23 17.491-3.02.159 7.23-17.49 3.02-.16Zm-10.025 5.91-.109-2.086c-.037-.695-.409-.916-.888-.89-.48.025-.826.283-.79.978l.11 2.086c.036.694.408.915.887.89.48-.025.827-.283.79-.978Zm11.586 7.828-.11-2.085c-.036-.695-.408-.916-.887-.89-.48.024-.827.283-.79.978l.11 2.085c.036.695.408.916.887.89.48-.024.826-.283.79-.978Z" fill="#E2001A"/><path d="m4 38 40.255 22.925L6.617 87.932 4 38ZM81.947 33.959 44.308 60.966 84.563 83.89 81.947 33.96Z" fill="#EAEAEA"/><path d="m6.622 87.953 34.066-31.61a5.173 5.173 0 0 1 6.643-.349l37.184 27.881-77.893 4.082v-.004Z" fill="#F6F6F6"/></g><defs><filter id="aia" x=".1" y=".42" width="88.775" height="93.517" filterUnits="userSpaceOnUse" color-interpolation-filters="sRGB"><feFlood flood-opacity="0" result="BackgroundImageFix"/><feColorMatrix in="SourceAlpha" values="0 0 0 0 0 0 0 0 0 0 0 0 0 0 0 0 0 0 127 0" result="hardAlpha"/><feOffset dy="2.08"/><feGaussianBlur stdDeviation="1.95"/><feComposite in2="hardAlpha" operator="out"/><feColorMatrix values="0 0 0 0 0 0 0 0 0 0 0 0 0 0 0 0 0 0 0.07 0"/><feBlend in2="BackgroundImageFix" result="effect1_dropShadow_6292_910"/><feBlend in="SourceGraphic" in2="effect1_dropShadow_6292_910" result="shape"/></filter><filter id="aib" x="7.254" y="15.991" width="74.644" height="48.148" filterUnits="userSpaceOnUse" color-interpolation-filters="sRGB"><feFlood flood-opacity="0" result="BackgroundImageFix"/><feColorMatrix in="SourceAlpha" values="0 0 0 0 0 0 0 0 0 0 0 0 0 0 0 0 0 0 127 0" result="hardAlpha"/><feOffset dy=".452"/><feGaussianBlur stdDeviation=".424"/><feComposite in2="hardAlpha" operator="out"/><feColorMatrix values="0 0 0 0 0 0 0 0 0 0 0 0 0 0 0 0 0 0 0.07 0"/><feBlend in2="BackgroundImageFix" result="effect1_dropShadow_6292_910"/><feBlend in="SourceGraphic" in2="effect1_dropShadow_6292_910" result="shape"/></filter></defs></svg><svg fill="none" viewBox="0 0 32 32" id="enjoys-training" xmlns="http://www.w3.org/2000/svg"><g clip-path="url(#aja)" fill="#E2001A"><path d="m16.369 8.264 5.659 6.113a1.995 1.995 0 0 0 1.447.639 1.996 1.996 0 0 0 1.447-.639l5.719-6.133c.417-.422.755-.915.998-1.456.36-.892.453-1.869.27-2.813a4.796 4.796 0 0 0-3.723-3.83 4.774 4.774 0 0 0-4.671 1.786 4.987 4.987 0 0 0-.779-.848 4.692 4.692 0 0 0-3.892-.997 4.782 4.782 0 0 0-3.723 3.85c-.179.948-.078 1.929.29 2.822.223.557.548 1.067.958 1.506Zm.668-3.91a2.8 2.8 0 0 1 2.196-2.274 2.667 2.667 0 0 1 2.236.559 2.912 2.912 0 0 1 .998 2.264.997.997 0 0 0 1.996 0 2.92 2.92 0 0 1 1.058-2.264 2.656 2.656 0 0 1 2.285-.559 2.815 2.815 0 0 1 2.146 2.244c.12.586.06 1.194-.17 1.746a2.742 2.742 0 0 1-.568.847l-5.68 6.134-5.708-6.154a2.743 2.743 0 0 1-.569-.827 3.059 3.059 0 0 1-.22-1.716ZM31.46 27.173 13.544 16.67h-.05c-.22-.16-.459-.309-.698-.449A8.487 8.487 0 0 0 .294 21.31a8.47 8.47 0 0 0 4.46 9.828 8.489 8.489 0 0 0 3.77.863 8.457 8.457 0 0 0 5.739-2.224L27.627 32h.16c.25.002.493-.09.678-.26l3.164-2.991a.999.999 0 0 0 .31-.838.998.998 0 0 0-.48-.738Zm-21.238 2.643a6.415 6.415 0 0 1-4.91-.648 6.494 6.494 0 0 1-3.047-7.326 6.492 6.492 0 0 1 6.32-4.802 6.47 6.47 0 0 1 6.228 4.797 6.499 6.499 0 0 1-4.591 7.979Zm17.236.1L15.74 28.01l.15-.24a8.424 8.424 0 0 0 .848-6.432c-.05-.2-.12-.4-.19-.599l4.252 2.494-.669 1.326a.997.997 0 0 0 .44 1.336c.14.08.298.121.459.12a.998.998 0 0 0 .888-.548l.619-1.217 6.767 3.989-1.847 1.676Z"/><path d="M12.88 22.467a4.5 4.5 0 1 0-8.759 2.066 4.5 4.5 0 0 0 8.76-2.066Zm-2.255 2.345A2.486 2.486 0 1 1 6.39 22.21a2.486 2.486 0 0 1 4.236 2.602Z"/></g><defs><clipPath id="aja"><path fill="#fff" d="M0 0h32v32H0z"/></clipPath></defs></svg><svg fill="none" viewBox="0 0 15 10" id="eye" xmlns="http://www.w3.org/2000/svg"><path d="M7.5 3c.497 0 .974.21 1.326.586.351.375.549.884.549 1.414 0 .53-.198 1.04-.55 1.414A1.818 1.818 0 0 1 7.5 7c-.497 0-.974-.21-1.326-.586A2.07 2.07 0 0 1 5.625 5c0-.53.198-1.04.55-1.414A1.818 1.818 0 0 1 7.5 3Zm0-3c3.125 0 5.794 2.073 6.875 5-1.081 2.927-3.75 5-6.875 5S1.706 7.927.625 5C1.706 2.073 4.375 0 7.5 0ZM1.987 5a6.42 6.42 0 0 0 2.265 2.676c.974.648 2.1.992 3.248.992a5.858 5.858 0 0 0 3.248-.992A6.42 6.42 0 0 0 13.012 5a6.42 6.42 0 0 0-2.264-2.675A5.858 5.858 0 0 0 7.5 1.332a5.858 5.858 0 0 0-3.248.992A6.42 6.42 0 0 0 1.988 5Z" fill="#666"/></svg><svg fill="none" viewBox="0 0 32 32" id="family" xmlns="http://www.w3.org/2000/svg"><g clip-path="url(#ala)" fill="#E2001A"><path d="M31.005 14.997a.995.995 0 0 1-.66-.243L16.002 2.343 1.659 14.754a.997.997 0 0 1-1.416-.106 1.02 1.02 0 0 1 .105-1.429L15.352.242a.995.995 0 0 1 1.3 0L31.656 13.22a1.013 1.013 0 0 1 .1 1.424 1.001 1.001 0 0 1-.75.354Z"/><path d="M15.992 32a2.272 2.272 0 0 1-1.633-.696L7.12 23.73a5.708 5.708 0 0 1-1.165-1.714 5.791 5.791 0 0 1-.348-3.351 5.652 5.652 0 0 1 1.547-2.958 5.803 5.803 0 0 1 2.964-1.599 5.812 5.812 0 0 1 3.31.328 5.706 5.706 0 0 1 2.566 2.083c.319-.467.705-.886 1.145-1.245a5.75 5.75 0 0 1 2.237-1.106 5.807 5.807 0 0 1 2.503-.06 5.813 5.813 0 0 1 2.958 1.593 5.662 5.662 0 0 1 1.553 2.944 5.714 5.714 0 0 1-.338 3.341 5.677 5.677 0 0 1-1.166 1.725l-7.25 7.593a2.313 2.313 0 0 1-1.643.696Zm-.189-2.038a.218.218 0 0 0 .19.107.221.221 0 0 0 .189-.107l7.26-7.594c.329-.33.592-.72.776-1.146.3-.706.38-1.484.23-2.234a3.723 3.723 0 0 0-1.021-1.904 3.821 3.821 0 0 0-1.918-1.036 3.753 3.753 0 0 0-1.636.036 3.716 3.716 0 0 0-1.46.729 3.85 3.85 0 0 0-1.04 1.315 3.792 3.792 0 0 0-.375 1.624c0 .26-.105.51-.291.693a1.004 1.004 0 0 1-1.409 0 .972.972 0 0 1-.291-.693 3.792 3.792 0 0 0-.376-1.624 3.85 3.85 0 0 0-1.038-1.315 3.688 3.688 0 0 0-1.455-.73 3.724 3.724 0 0 0-1.633-.035 3.813 3.813 0 0 0-1.96 1.043 3.714 3.714 0 0 0-1.027 1.946 3.862 3.862 0 0 0 .279 2.185c.183.42.447.803.777 1.127l7.23 7.613Z"/></g><defs><clipPath id="ala"><path fill="#fff" d="M0 0h32v32H0z"/></clipPath></defs></svg><svg fill="none" viewBox="0 0 32 32" id="food" xmlns="http://www.w3.org/2000/svg"><path d="m30.942 24.394-1.196-6.027a3.021 3.021 0 0 0-.801-1.513 2.982 2.982 0 0 0-1.49-.827v-1.085c0-1.066-.42-2.088-1.167-2.841a3.968 3.968 0 0 0-2.818-1.177l-1.136-.06a4.025 4.025 0 0 0-1.103-1.84 3.975 3.975 0 0 0-1.886-1.003 4.02 4.02 0 0 0-1.394-2.16 3.964 3.964 0 0 0-4.841-.069 4.019 4.019 0 0 0-1.455 2.119h-.14c-.883 0-1.74.296-2.438.842a4.02 4.02 0 0 0-1.417 2.17h-.13c-1.057 0-2.07.424-2.818 1.178a4.035 4.035 0 0 0-1.167 2.84v1.086a2.983 2.983 0 0 0-1.49.827 3.021 3.021 0 0 0-.801 1.513L.058 24.394a3.038 3.038 0 0 0 .618 2.502A2.969 2.969 0 0 0 2.986 28h25.027a2.969 2.969 0 0 0 2.31-1.104 3.024 3.024 0 0 0 .619-2.502ZM7.53 12.933h.996a.992.992 0 0 0 .705-.294c.187-.189.292-.444.292-.71 0-.533.21-1.044.583-1.421a1.984 1.984 0 0 1 2.818 0c.374.377.584.888.584 1.42 0 .267.105.522.291.71a.992.992 0 0 0 1.41 0c.186-.188.291-.443.291-.71a4.044 4.044 0 0 0-.523-1.975 4.002 4.002 0 0 0-1.42-1.46c.09-.41.307-.782.618-1.062a1.985 1.985 0 0 1 2.313-.248c.362.208.651.526.825.908a3.974 3.974 0 0 0-1.265.663 1.007 1.007 0 0 0 .499 1.748.99.99 0 0 0 .716-.16 1.983 1.983 0 0 1 2.434-.012c.348.267.599.642.714 1.066.105.437.353.827.703 1.105.35.279.784.431 1.23.432h1.126c.528 0 1.035.212 1.409.588.373.377.583.888.583 1.42v1.005H5.538v-1.004c0-.533.21-1.044.583-1.42.374-.377.88-.59 1.41-.59Zm-3.347 5.022h22.634a.99.99 0 0 1 .643.22c.182.147.307.354.354.584l.637 3.214H2.549l.638-3.214c.046-.23.171-.437.353-.584a.99.99 0 0 1 .643-.22ZM28.78 25.62a.999.999 0 0 1-.767.372H2.987a.99.99 0 0 1-.767-.372 1.008 1.008 0 0 1-.209-.833l.16-.804H28.83l.159.804a1.013 1.013 0 0 1-.21.833Z" fill="#E2001A"/></svg><svg fill="none" viewBox="0 0 32 32" id="health-arrow" xmlns="http://www.w3.org/2000/svg"><g clip-path="url(#ana)" fill="#E2001A"><path d="M19.987 23.956a1.003 1.003 0 0 1-.691-.27.998.998 0 0 1 0-1.417l8.9-9.36a6.418 6.418 0 0 0 1.302-1.927 6.627 6.627 0 0 0 .38-3.772 6.47 6.47 0 0 0-1.774-3.314 6.504 6.504 0 0 0-3.322-1.775 6.6 6.6 0 0 0-5.436 1.367 6.48 6.48 0 0 0-2.363 5 .997.997 0 0 1-1.001.997 1.003 1.003 0 0 1-1.002-.997 6.46 6.46 0 0 0-2.362-4.99A6.586 6.586 0 0 0 7.18 2.12a6.508 6.508 0 0 0-4.453 3.322 6.46 6.46 0 0 0-.243 5.54c.315.744.77 1.421 1.342 1.995l8.88 9.331a1 1 0 0 1-.759 1.69 1.007 1.007 0 0 1-.702-.313l-8.87-9.37A8.352 8.352 0 0 1 .642 11.8 8.457 8.457 0 0 1 .31 6.298a8.482 8.482 0 0 1 3.13-4.545 8.53 8.53 0 0 1 10.46.248 8.36 8.36 0 0 1 2.082 2.495A8.497 8.497 0 0 1 19.659.91a8.535 8.535 0 0 1 9.702 1.428 8.475 8.475 0 0 1 2.48 4.493 8.536 8.536 0 0 1-.5 4.93 8.373 8.373 0 0 1-1.743 2.525l-8.88 9.36a1.001 1.001 0 0 1-.731.31Z"/><path d="M23 30.054h-6V16.432l2.4 1.752a1.018 1.018 0 0 0 1.4-.195.962.962 0 0 0 .19-.721.956.956 0 0 0-.39-.641l-2.8-2.043A3.055 3.055 0 0 0 16 14c-.65 0-1.28.205-1.8.584l-2.8 2.043a.982.982 0 0 0-.39.64.947.947 0 0 0 .19.722.991.991 0 0 0 .659.38 1.027 1.027 0 0 0 .741-.185l2.4-1.752v13.622H9c-.265 0-.52.103-.707.285a.96.96 0 0 0-.293.688.96.96 0 0 0 .293.688c.187.183.442.285.707.285h14c.265 0 .52-.102.707-.285a.96.96 0 0 0 .293-.688.96.96 0 0 0-.293-.688 1.014 1.014 0 0 0-.707-.285Z"/></g><defs><clipPath id="ana"><path fill="#fff" d="M0 0h32v32H0z"/></clipPath></defs></svg><svg fill="none" viewBox="0 0 18 18" id="human-interaction" xmlns="http://www.w3.org/2000/svg"><path d="M14.438 10.215a7.461 7.461 0 0 0-3.086-1.807 4.226 4.226 0 1 0-4.655 0 7.075 7.075 0 0 0-5.072 6.619v.95a1.584 1.584 0 0 0 1.585 1.585h11.624a1.585 1.585 0 0 0 1.585-1.584V14.82a6.42 6.42 0 0 0-1.982-4.606Zm-8.586-5.33a3.169 3.169 0 0 1 5.412-2.241A3.169 3.169 0 1 1 6.78 7.126a3.169 3.169 0 0 1-.928-2.241Zm9.51 11.093a.528.528 0 0 1-.528.528H3.21a.528.528 0 0 1-.528-.528v-.951c0-3.207 2.79-5.858 6.218-5.916a6.675 6.675 0 0 1 4.798 1.854 5.397 5.397 0 0 1 1.664 3.856v1.157Z" fill="#767676"/></svg><svg fill="none" viewBox="0 0 10 16" id="left-arrow" xmlns="http://www.w3.org/2000/svg"><path d="m9.007 15-7-7 7-7" stroke="#E2001A" stroke-width="2" stroke-linecap="round"/></svg><svg fill="none" viewBox="0 0 17 18" id="like" xmlns="http://www.w3.org/2000/svg"><path d="M16.438 9.928c.19-.298.299-.65.299-1.025 0-1.08-.904-1.957-2.015-1.957h-3.358c.024-.323.063-.648.116-.97.146-.287.525-1.07.779-1.95.195-.674.279-1.272.248-1.778-.06-.965-.527-1.467-.909-1.717C11.063.178 10.54 0 10.043 0c-.498 0-.925.166-1.282.48a1.858 1.858 0 0 0-.407.501l-.065.122-.016.136c-.119.962-.654 1.903-1.082 2.523a8.879 8.879 0 0 1-.92 1.133l-.053.053-.042.062-2.055 3.046a1.215 1.215 0 0 0-.868-.36h-2.05C.54 7.696 0 8.22 0 8.864v7.85c0 .645.54 1.169 1.203 1.169h2.051c.376 0 .713-.169.933-.433l.247.027 4.495.478c.169.017.6.024 2.183.035 1.01.007 2.019.01 2.03.01h.002c1.111 0 2.014-.878 2.014-1.956 0-.157-.018-.31-.055-.459.93-.174 1.634-.97 1.634-1.922 0-.368-.104-.72-.299-1.026.348-.352.562-.829.562-1.354 0-.525-.214-1.003-.562-1.355Zm-12.77 6.786a.408.408 0 0 1-.414.402h-2.05a.408.408 0 0 1-.415-.402v-7.85c0-.222.186-.402.414-.402h2.051c.228 0 .414.18.414.402v7.85Zm11.318-4.24h-.263c.338 0 .644.133.866.348.222.216.359.513.359.841 0 .657-.549 1.19-1.226 1.19h-1.578c.338 0 .645.133.866.349.222.215.36.513.36.841 0 .658-.55 1.19-1.226 1.19 0 0-4.027-.014-4.129-.04l-4.495-.479v-7.85L6.837 5.43s1.954-1.945 2.22-4.102c0 0 .295-.562.986-.562.296 0 .664.103 1.113.398 1.496.985-.435 4.57-.435 4.57a11.454 11.454 0 0 0-.175 1.945l-.001.087c.116-.035.239-.054.367-.054h3.81c.677 0 1.226.533 1.226 1.19 0 .657-.549 1.19-1.226 1.19h.264c.676 0 1.225.533 1.225 1.19 0 .657-.549 1.19-1.225 1.19Z" fill="#fff"/></svg><svg fill="none" viewBox="0 0 15 17" id="like-active" xmlns="http://www.w3.org/2000/svg"><path d="M14.504 9.34c.167-.27.264-.588.264-.928 0-.977-.798-1.772-1.778-1.772h-2.963c.021-.293.056-.588.103-.88.128-.26.462-.969.687-1.765.172-.61.246-1.153.218-1.61-.053-.875-.465-1.33-.801-1.557C9.762.51 9.3.348 8.86.348c-.439 0-.815.15-1.13.434-.22.198-.331.398-.36.455l-.057.11-.015.123c-.104.872-.576 1.724-.954 2.285a7.997 7.997 0 0 1-.811 1.027l-.047.048-.037.056-1.814 2.76a1.059 1.059 0 0 0-.765-.328H1.06c-.585 0-1.06.475-1.06 1.059v7.111c0 .583.475 1.058 1.06 1.058h1.81c.332 0 .63-.153.824-.392l.218.024 3.966.433c.148.015.529.022 1.926.032.89.006 1.781.01 1.79.01h.003a1.777 1.777 0 0 0 1.728-2.188 1.777 1.777 0 0 0 1.442-1.74c0-.334-.092-.654-.264-.93a1.764 1.764 0 0 0 0-2.454ZM3.236 15.489c0 .2-.164.363-.365.363h-1.81a.365.365 0 0 1-.364-.363V8.377c0-.201.163-.364.365-.364h1.81c.2 0 .364.163.364.364v7.11Zm9.987-3.842h-.232a1.08 1.08 0 0 1 1.08 1.078 1.08 1.08 0 0 1-1.08 1.078h-1.393a1.08 1.08 0 0 1 1.08 1.078 1.08 1.08 0 0 1-1.08 1.078s-3.554-.013-3.644-.037l-3.965-.433V8.377l2.044-3.11S7.757 3.505 7.99 1.552c0 0 .261-.51.87-.51.261 0 .586.094.982.362 1.32.891-.383 4.139-.383 4.139a10.645 10.645 0 0 0-.154 1.762l-.002.078c.102-.032.211-.049.324-.049h3.362a1.08 1.08 0 0 1 1.082 1.078A1.08 1.08 0 0 1 12.99 9.49h.232a1.08 1.08 0 0 1 1.082 1.078 1.08 1.08 0 0 1-1.081 1.078Z" fill="#fff"/><path d="M3.638 7.894H.606l-.303 7.881 1.213.607 2.122-.607 8.791.304.606-1.213.91-1.213.606-3.031-.303-3.335-4.547-.303.606-1.819.303-3.334L9.094.618l-1.212.606-.606 1.516-3.638 5.154Z" fill="#fff"/></svg><svg fill="none" viewBox="0 0 32 32" id="like-heart" xmlns="http://www.w3.org/2000/svg"><path d="M15.99 28.994a3.013 3.013 0 0 1-2.162-.918L2.399 16.251a8.206 8.206 0 0 1-1.74-2.513 8.447 8.447 0 0 1-.1-6.29 8.487 8.487 0 0 1 4.28-4.626 8.535 8.535 0 0 1 6.3-.412 8.499 8.499 0 0 1 4.85 4.03 8.623 8.623 0 0 1 2.082-2.494 8.525 8.525 0 0 1 10.488-.278 8.474 8.474 0 0 1 3.137 4.562 8.446 8.446 0 0 1-.355 5.518 8.365 8.365 0 0 1-1.742 2.523L18.151 28.076a3.002 3.002 0 0 1-2.162.918Zm-.721-2.304a1 1 0 0 0 1.112.226 1 1 0 0 0 .329-.226l11.448-11.855A6.252 6.252 0 0 0 29.5 12.92a6.54 6.54 0 0 0 .38-3.769 6.464 6.464 0 0 0-1.773-3.311 6.502 6.502 0 0 0-3.32-1.774 6.598 6.598 0 0 0-5.434 1.366 6.474 6.474 0 0 0-2.362 4.986.995.995 0 0 1-1 .997 1.003 1.003 0 0 1-1.001-.997 6.452 6.452 0 0 0-2.362-4.986 6.584 6.584 0 0 0-5.434-1.366c-.942.19-1.83.587-2.6 1.161A6.453 6.453 0 0 0 2.5 12.92a6.32 6.32 0 0 0 1.34 1.995L15.27 26.69Z" fill="#E2001A"/></svg><svg fill="none" viewBox="0 0 137 52" id="logo" xmlns="http://www.w3.org/2000/svg"><g clip-path="url(#aua)" fill="#E2001A"><path d="M61.478 45.298h-3.122c-.104 0-.156-.105-.156-.158v-9.51a.902.902 0 0 0 0-.524c-.156-.894-.988-1.471-1.872-1.366-.885.157-1.457.998-1.353 1.89v11.874c0 .473.364.894.885.946h5.774c.832-.053 1.456-.788 1.404-1.629 0-.998-.676-1.576-1.56-1.523ZM50.19 34.528l-8.323 11.348a1.476 1.476 0 0 0-.312.945c0 .473.208.999.676 1.261.728.473 1.612.316 2.133-.315l1.612-2.207h3.902v1.261c.052.894.78 1.577 1.612 1.524.884 0 1.509-.736 1.509-1.524V35.578c0-.472-.208-.945-.52-1.208-.677-.63-1.717-.578-2.29.158Zm-.364 7.828h-1.457c-.052 0-.104-.053-.104-.105l1.56-2.154v2.259Zm-4.214-6.725c0-.84-.676-1.524-1.456-1.524-.416 0-.833.158-1.093.42l-3.537 3.73c-.052.053-.104.053-.156.053-.052 0-.104 0-.104-.052l-3.537-3.73c-.26-.263-.676-.473-1.093-.473-.832 0-1.456.683-1.456 1.47 0 .369.156.789.364 1.052l4.317 4.99.053 5.254c0 .841.676 1.524 1.508 1.524s1.509-.683 1.509-1.524l.104-5.2 4.213-4.992a1.58 1.58 0 0 0 .364-.998Zm-18.258-1.576c-3.901 0-7.075 3.205-7.075 7.145 0 3.94 3.174 7.145 7.075 7.145 3.901 0 7.074-3.257 7.074-7.198 0-3.835-3.173-7.04-7.074-7.092Zm0 10.928c-2.133 0-3.797-1.682-3.797-3.836s1.664-3.835 3.797-3.835 3.797 1.681 3.797 3.835-1.665 3.836-3.797 3.836ZM102 33.74c-.781.052-1.405.683-1.405 1.418v6.672c0 .053-.052.105-.104.105s-.052 0-.052-.052L96.589 35c-.572-1.05-1.924-1.365-2.912-.735a2.354 2.354 0 0 0-1.04 1.734v10.927c.051.894.832 1.524 1.612 1.471a1.574 1.574 0 0 0 1.456-1.47v-6.673c0-.052.052-.105.104-.105s.052 0 .052.053l3.954 7.04c.52.998 1.768 1.313 2.757.788a1.974 1.974 0 0 0 1.04-1.734V35.211c-.052-.841-.728-1.524-1.612-1.471Zm-84.218 8.773c1.249-.788 2.081-2.154 2.03-3.625v-.052c.051-2.575-2.03-4.729-4.578-4.781-1.249-.105-2.55.315-3.434 1.208-.988.998-1.3 2.26-1.3 3.625l.208 7.933c0 .841.676 1.524 1.509 1.524.832 0 1.508-.683 1.508-1.524l.052-3.782c0-.105.052-.158.156-.158h.104l3.693 5.096c.26.263.573.368.989.368.832 0 1.456-.683 1.508-1.471 0-.21-.052-.42-.156-.683l-2.289-3.678Zm-2.652-2.206h-.26c-.885-.053-1.457-.84-1.405-1.629.052-.893.832-1.47 1.613-1.418h.26c.884.052 1.456.84 1.404 1.628-.052.84-.832 1.629-1.612 1.419Zm62.89 3.257c-.209 0-.469.053-.729.158l-1.248.84c-.573.368-1.3.578-2.03.578-2.184-.105-3.796-1.996-3.692-4.098.104-2.049 1.664-3.625 3.693-3.73.728 0 1.404.21 2.029.578l1.196.84c.208.106.416.158.728.158.833 0 1.509-.683 1.509-1.523 0-.316-.104-.736-.364-.998a6.369 6.369 0 0 0-4.89-2.26c-3.901 0-7.075 3.205-7.075 7.145 0 3.783 2.913 6.935 6.659 7.145 2.029 0 3.901-.84 5.306-2.311.208-.263.364-.578.312-.998.156-.84-.572-1.524-1.405-1.524Zm28.921-9.877c-.936 0-1.612.788-1.612 1.629V46.82c0 .946.78 1.629 1.612 1.629.937 0 1.613-.788 1.613-1.629V35.316c0-.893-.676-1.629-1.613-1.629Zm-23.668.788a1.808 1.808 0 0 0-1.248-.525c-.937 0-1.613.42-1.613 1.366V46.82c0 .894.728 1.524 1.56 1.524.833 0 1.561-.683 1.613-1.524v-1.26h3.902l1.612 2.206c.26.368.78.578 1.248.578.885 0 1.51-.736 1.51-1.524 0-.315-.105-.683-.313-.945l-8.27-11.4Zm1.873 7.776c0 .052-.052.105-.104.105h-1.457v-2.364l1.56 2.206c.053 0 .053 0 0 .053Zm34.54-8.511c-.781.052-1.405.683-1.405 1.418v6.672c0 .053-.052.105-.104.105s-.052 0-.104-.052L114.276 35c-.572-1.05-1.925-1.365-2.913-.735a2.356 2.356 0 0 0-1.041 1.734v10.927c0 .894.729 1.577 1.561 1.577s1.56-.736 1.56-1.577v-6.672c0-.052.053-.105.105-.105s.052 0 .052.053l3.953 7.04c.52.998 1.769 1.313 2.757.788a1.974 1.974 0 0 0 1.04-1.734V35.211c-.104-.841-.832-1.524-1.664-1.471Zm5.618 1.313v-.105c0-.42-.313-.525-.677-.525h-.468c-.156 0-.208.105-.208.157V36c0 .157.052.21.208.21s.208-.105.208-.21v-.526h.104l.26.526c.052.105.104.21.26.21.157 0 .209-.053.209-.158v-.105l-.313-.473c.209.053.417-.21.417-.42Zm-.625.105h-.312v-.42h.312c.156 0 .26.052.26.21s-.104.21-.26.21Zm-.052-1.523c-.936 0-1.664.788-1.664 1.68 0 .894.78 1.682 1.664 1.682.885 0 1.665-.788 1.665-1.681-.052-.893-.78-1.681-1.665-1.681Zm0 2.942c-.728 0-1.248-.526-1.248-1.261 0-.736.52-1.261 1.248-1.261.729 0 1.249.525 1.249 1.26 0 .684-.572 1.262-1.249 1.262ZM79.528 26.385c-3.33-2.47-8.323-3.94-13.473-3.94s-10.196 1.47-13.473 3.94c-.312.21-.468.577-.468.998 0 .735.52 1.26 1.248 1.26.26 0 .52-.104.78-.262 2.237-1.681 6.555-3.468 12.017-3.468s9.727 1.787 11.964 3.468l.052.052c.52.368 1.353.263 1.717-.315.312-.578.208-1.366-.364-1.733Zm-13.473-.946c-4.786 0-9.311 1.418-12.12 3.783h-.052a.961.961 0 0 0-.104 1.208c.156.21.364.315.676.315a.664.664 0 0 0 .52-.21c2.497-2.102 6.658-3.415 11.028-3.415s8.479 1.261 11.028 3.415c.364.315.936.263 1.196-.105.312-.368.26-.946-.104-1.208-2.809-2.312-7.335-3.783-12.068-3.783ZM50.553 16.35c.365-1.524-.52-3.047-2.08-3.52a3.04 3.04 0 0 0-.728-.105c-1.561 0-2.81 1.26-2.81 2.837 0 1.576 1.249 2.837 2.81 2.837 1.404.105 2.496-.788 2.809-2.049Zm15.502 4.413c1.56 0 2.809-1.26 2.809-2.837 0-1.576-1.249-2.837-2.81-2.837-1.56 0-2.808 1.261-2.808 2.837 0 1.576 1.196 2.837 2.809 2.837Zm0-7.25c1.56 0 2.809-1.261 2.809-2.837 0-1.576-1.249-2.89-2.81-2.89-1.56 0-2.808 1.261-2.808 2.837-.052 1.629 1.196 2.89 2.809 2.89Zm-8.323 2.574c-1.509.42-2.393 2.05-1.977 3.573.312 1.208 1.457 2.049 2.705 2.101h.052c.208 0 .468-.052.728-.105 1.509-.42 2.393-1.996 2.03-3.52a2.847 2.847 0 0 0-2.758-2.154c-.312 0-.52.053-.78.105Zm-3.537 6.462c.364-1.523-.52-3.152-2.081-3.52a3.038 3.038 0 0 0-.728-.105c-.468 0-.989.158-1.457.368-.676.368-1.144 1.05-1.3 1.734-.208.788-.104 1.523.312 2.206.468.893 1.404 1.366 2.445 1.419.468 0 1.04-.105 1.456-.368.677-.368 1.197-.998 1.353-1.734Zm18.674-.945c.26.052.468.105.78.105 1.561 0 2.81-1.314 2.81-2.837a2.817 2.817 0 0 0-2.081-2.732c-.26-.053-.469-.105-.78-.105-1.561 0-2.81 1.313-2.81 2.89-.052 1.208.833 2.363 2.081 2.679Zm1.873-6.935c.208.052.468.105.78.105 1.56 0 2.81-1.314 2.81-2.837a2.817 2.817 0 0 0-2.082-2.732c-.26-.053-.468-.105-.78-.105-1.56 0-2.809 1.313-2.809 2.89 0 1.155.884 2.311 2.08 2.679Zm7.386 4.676c-.416-.263-.936-.368-1.404-.368-1.56 0-2.81 1.26-2.81 2.837 0 .21.053.473.105.735.156.736.676 1.366 1.3 1.734 1.353.84 3.121.315 3.902-1.05.364-.684.468-1.42.312-2.207-.312-.63-.78-1.261-1.405-1.681Zm4.942-4.413c-.156-.736-.676-1.367-1.3-1.734-1.353-.84-3.121-.316-3.902 1.05-.364.684-.468 1.419-.312 2.207.156.736.676 1.366 1.3 1.734 1.353.84 3.122.367 3.902-.998.416-.736.52-1.63.312-2.26Zm-30.43-.158c.26 0 .52-.053.78-.105 1.508-.42 2.393-2.05 2.029-3.52-.313-1.261-1.457-2.102-2.705-2.102-.26 0-.468.053-.78.105-1.51.42-2.393 2.05-2.03 3.52a2.798 2.798 0 0 0 2.706 2.102Z"/></g><defs><clipPath id="aua"><path fill="#fff" transform="translate(10.5 6)" d="M0 0h116v44H0z"/></clipPath></defs></svg><svg fill="none" viewBox="0 0 130 71" id="logo-min" xmlns="http://www.w3.org/2000/svg"><path d="M106.059 57.08c-10.131-7.52-25.328-12-40.999-12-15.671 0-31.026 4.48-40.998 12-.95.64-1.425 1.76-1.425 3.04 0 2.24 1.583 3.84 3.799 3.84.791 0 1.583-.32 2.374-.8 6.807-5.12 19.946-10.56 36.567-10.56s29.601 5.44 36.408 10.56l.158.16c1.583 1.12 4.116.8 5.224-.96.95-1.76.633-4.16-1.108-5.28ZM65.06 54.2c-14.563 0-28.335 4.32-36.883 11.52h-.158c-.95.96-1.108 2.56-.317 3.68.475.64 1.108.96 2.058.96.633 0 1.108-.16 1.583-.64 7.598-6.4 20.262-10.4 33.559-10.4 13.297 0 25.802 3.84 33.559 10.4 1.108.96 2.849.8 3.64-.32.95-1.12.792-2.88-.316-3.68-8.548-7.04-22.32-11.52-36.725-11.52ZM17.888 26.52c1.108-4.64-1.583-9.28-6.332-10.72-.633-.16-1.425-.32-2.216-.32-4.749 0-8.548 3.84-8.548 8.64 0 4.8 3.799 8.64 8.548 8.64 4.274.32 7.598-2.4 8.548-6.24ZM65.06 39.96c4.749 0 8.548-3.84 8.548-8.64 0-4.8-3.799-8.64-8.548-8.64-4.749 0-8.548 3.84-8.548 8.64 0 4.8 3.641 8.64 8.548 8.64Zm0-22.08c4.749 0 8.548-3.84 8.548-8.64 0-4.8-3.799-8.8-8.548-8.8-4.749 0-8.548 3.84-8.548 8.64-.158 4.96 3.641 8.8 8.548 8.8Zm-25.327 7.84c-4.591 1.28-7.282 6.24-6.015 10.88.949 3.68 4.432 6.24 8.231 6.4h.158c.633 0 1.425-.16 2.216-.32 4.591-1.28 7.282-6.08 6.174-10.72-.95-3.84-4.432-6.56-8.39-6.56-.95 0-1.583.16-2.374.32ZM28.969 45.4c1.108-4.64-1.583-9.6-6.332-10.72-.633-.16-1.425-.32-2.216-.32-1.425 0-3.008.48-4.433 1.12-2.057 1.12-3.482 3.2-3.957 5.28-.633 2.4-.317 4.64.95 6.72 1.424 2.72 4.274 4.16 7.44 4.32 1.424 0 3.166-.32 4.432-1.12 2.058-1.12 3.641-3.04 4.116-5.28Zm56.828-2.88c.791.16 1.425.32 2.374.32 4.749 0 8.548-4 8.548-8.64 0-4-2.691-7.36-6.331-8.32-.792-.16-1.425-.32-2.375-.32-4.749 0-8.548 4-8.548 8.8-.158 3.68 2.533 7.2 6.332 8.16Zm5.699-21.12c.633.16 1.424.32 2.374.32 4.749 0 8.548-4 8.548-8.64 0-4-2.691-7.36-6.332-8.32-.791-.16-1.424-.32-2.374-.32-4.749 0-8.548 4-8.548 8.8 0 3.52 2.691 7.04 6.332 8.16Zm22.478 14.24c-1.267-.8-2.85-1.12-4.274-1.12-4.749 0-8.548 3.84-8.548 8.64 0 .64.158 1.44.316 2.24.475 2.24 2.058 4.16 3.958 5.28 4.115 2.56 9.497.96 11.872-3.2 1.108-2.08 1.424-4.32.95-6.72-.95-1.92-2.375-3.84-4.274-5.12Zm15.038-13.44c-.475-2.24-2.058-4.16-3.958-5.28-4.115-2.56-9.497-.96-11.872 3.2-1.108 2.08-1.425 4.32-.95 6.72.475 2.24 2.058 4.16 3.958 5.28 4.115 2.56 9.498 1.12 11.872-3.04 1.266-2.24 1.583-4.96.95-6.88Zm-92.603-.48c.791 0 1.583-.16 2.374-.32 4.591-1.28 7.282-6.24 6.174-10.72-.95-3.84-4.433-6.4-8.232-6.4-.791 0-1.424.16-2.374.32-4.591 1.28-7.282 6.24-6.174 10.72.95 3.68 4.274 6.4 8.232 6.4Z" fill="#E2001A"/></svg><svg fill="none" viewBox="0 0 32 32" id="low-maintenance" xmlns="http://www.w3.org/2000/svg"><path d="M30.704 21.501a3.001 3.001 0 0 0-3.622-1.64h-.08l-4.742 1.88a2.29 2.29 0 0 0-2.561-1.74h-5.073c-3.832-4.269-8.104-2.94-10.235-2H2.06a1 1 0 1 0 0 2h2.561a.999.999 0 0 0 .44-.1 6.366 6.366 0 0 1 7.934 1.1c.19.2.88 1 1.151 1h5.483c.36 0 .78.56.78 1 0 .44-.43 1-.78 1h-7.284c-.84 0-1 .55-1 1 0 .73.67.94 1.23.94h7.274a2.573 2.573 0 0 0 2.361-2.07l5.433-2.13a1.001 1.001 0 0 1 1.21.56.998.998 0 0 1-.49 1.38l-9.475 5.32s-2.35 1.43-4.152.86L2.34 25.4a1 1 0 0 0-1.245 1.364 1 1 0 0 0 .565.515l12.426 4.48a5.147 5.147 0 0 0 1.58.24 9.008 9.008 0 0 0 4.243-1.27l9.475-5.27a3 3 0 0 0 1.32-3.959ZM8.494 8.303l5.842 6.21a2 2 0 0 0 1.46.629 2.002 2.002 0 0 0 1.472-.63l5.842-6.22a4.84 4.84 0 0 0 1.001-1.469c.36-.894.454-1.873.27-2.82A4.798 4.798 0 0 0 18.857.068c-.83.138-1.61.492-2.26 1.026a5.226 5.226 0 0 0-.8.83 5.145 5.145 0 0 0-.8-.83 4.813 4.813 0 0 0-4.002-1 4.903 4.903 0 0 0-3.782 3.91 5.056 5.056 0 0 0 .3 2.86 4.68 4.68 0 0 0 .98 1.439Zm.69-4a2.829 2.829 0 0 1 3.448-2.267c.402.1.776.291 1.094.558a2.94 2.94 0 0 1 1.07 2.33 1 1 0 0 0 2.001 0 2.939 2.939 0 0 1 1.07-2.28 2.752 2.752 0 0 1 2.332-.58 2.832 2.832 0 0 1 2.211 2.28 2.997 2.997 0 0 1-.17 1.72 2.77 2.77 0 0 1-.58.86l-5.863 6.218-5.803-6.209a2.82 2.82 0 0 1-.59-.86 2.998 2.998 0 0 1-.22-1.72v-.05Z" fill="#E2001A"/></svg><svg fill="none" viewBox="0 0 24 24" id="message-alert-square" xmlns="http://www.w3.org/2000/svg"><path d="M12 10.5V7m0 7h-.01M17 18v2.335c0 .533 0 .8-.11.937a.5.5 0 0 1-.39.188c-.176 0-.384-.167-.8-.5l-2.385-1.908c-.487-.39-.731-.585-1.002-.724a2.997 2.997 0 0 0-.762-.267C11.252 18 10.94 18 10.316 18H7.8c-1.68 0-2.52 0-3.162-.327a3 3 0 0 1-1.311-1.311C3 15.72 3 14.88 3 13.2V7.8c0-1.68 0-2.52.327-3.162a3 3 0 0 1 1.311-1.311C5.28 3 6.12 3 7.8 3h8.4c1.68 0 2.52 0 3.162.327a3 3 0 0 1 1.311 1.311C21 5.28 21 6.12 21 7.8V14c0 .93 0 1.395-.102 1.777a3 3 0 0 1-2.122 2.12C18.395 18 17.93 18 17 18Z" stroke="#E2001A" stroke-width="2" stroke-linecap="round" stroke-linejoin="round"/></svg><svg fill="none" viewBox="0 0 11 1" id="minus" xmlns="http://www.w3.org/2000/svg"><path d="M10.5 1H.5a.5.5 0 1 1 0-1h10a.5.5 0 0 1 0 1Z" fill="#767676"/></svg><svg fill="none" viewBox="0 0 20 21" id="mobile-home" xmlns="http://www.w3.org/2000/svg"><path d="M6.55 16.407h7.28M9.296 3.452l-6.172 4.8c-.412.322-.619.482-.767.683a1.82 1.82 0 0 0-.29.592C2 9.767 2 10.029 2 10.55v6.584c0 1.02 0 1.529.198 1.918.175.343.453.621.796.796.389.198.899.198 1.918.198h10.556c1.02 0 1.529 0 1.918-.198a1.82 1.82 0 0 0 .795-.796c.199-.39.199-.899.199-1.918V10.55c0-.522 0-.784-.068-1.024a1.821 1.821 0 0 0-.289-.592c-.149-.201-.355-.361-.767-.682l-6.172-4.8c-.32-.25-.48-.374-.656-.421a.91.91 0 0 0-.476 0c-.176.047-.336.172-.656.42Z" stroke="#767676" stroke-width="1.285" stroke-linecap="square" stroke-linejoin="round"/></svg><svg fill="none" viewBox="0 0 21 20" id="mobile-message-chat" xmlns="http://www.w3.org/2000/svg"><g clip-path="url(#aza)"><path d="m9.667 12.833-2.563 2.595c-.358.362-.536.543-.69.556a.417.417 0 0 1-.35-.144c-.101-.117-.101-.372-.101-.88v-1.3c0-.457-.374-.787-.825-.853v0a2.5 2.5 0 0 1-2.112-2.111C3 10.516 3 10.3 3 9.87V6c0-1.4 0-2.1.272-2.635a2.5 2.5 0 0 1 1.093-1.093C4.9 2 5.6 2 7 2h6.167c1.4 0 2.1 0 2.635.272a2.5 2.5 0 0 1 1.092 1.093c.273.535.273 1.235.273 2.635v3.5m0 9.167-1.814-1.261c-.255-.177-.382-.266-.521-.329a1.67 1.67 0 0 0-.386-.12c-.15-.028-.305-.028-.615-.028h-1.498c-.933 0-1.4 0-1.756-.182a1.667 1.667 0 0 1-.729-.728c-.181-.357-.181-.824-.181-1.757v-2.095c0-.934 0-1.4.181-1.757.16-.314.415-.569.729-.728.356-.182.823-.182 1.756-.182H17c.933 0 1.4 0 1.757.182.313.16.568.414.728.728.182.357.182.823.182 1.757v2.262c0 .776 0 1.164-.127 1.47-.17.41-.494.734-.902.903-.307.127-.695.127-1.471.127v1.738Z" stroke="#767676" stroke-width="1.5" stroke-linecap="round" stroke-linejoin="round"/></g><defs><clipPath id="aza"><path fill="#fff" transform="translate(.75)" d="M0 0h20v20H0z"/></clipPath></defs></svg><svg fill="none" viewBox="0 0 20 20" id="mobile-profile" xmlns="http://www.w3.org/2000/svg"><path d="M16.019 10.848a8.279 8.279 0 0 0-3.424-2.005 4.689 4.689 0 1 0-5.164 0 7.85 7.85 0 0 0-5.628 7.344v1.055A1.758 1.758 0 0 0 3.56 19H16.46a1.759 1.759 0 0 0 1.758-1.758v-1.284a7.125 7.125 0 0 0-2.198-5.11ZM6.493 4.934a3.516 3.516 0 0 1 6.004-2.486 3.516 3.516 0 1 1-6.004 2.486Zm10.552 12.308a.586.586 0 0 1-.587.586H3.562a.586.586 0 0 1-.586-.586v-1.055c0-3.558 3.095-6.5 6.9-6.564a7.405 7.405 0 0 1 5.323 2.057 5.99 5.99 0 0 1 1.847 4.278v1.284Z" fill="#767676" stroke="#767676" stroke-width=".5"/></svg><svg fill="none" viewBox="0 0 21 20" id="mobile-search" xmlns="http://www.w3.org/2000/svg"><path d="M.964 5.145h6.49m-6.49 5.607h7.573M.964 16.428h13.703m2.164-5.994 2.704 2.64m-1.082-5.28c0-2.333-1.936-4.223-4.327-4.223-2.39 0-4.327 1.89-4.327 4.223 0 2.334 1.936 4.224 4.327 4.224s4.327-1.89 4.327-4.224Z" stroke="#444" stroke-width="1.5" stroke-miterlimit="10" stroke-linejoin="round"/></svg><svg fill="none" viewBox="0 0 21 20" id="mobile-shopping" xmlns="http://www.w3.org/2000/svg"><path d="M13.834 7.5V5a3.333 3.333 0 0 0-6.667 0v2.5M3.494 8.627l-.5 5.333c-.142 1.516-.213 2.275.038 2.86a2.5 2.5 0 0 0 1.1 1.208c.56.305 1.321.305 2.845.305h7.048c1.523 0 2.284 0 2.844-.305a2.5 2.5 0 0 0 1.1-1.208c.252-.585.18-1.344.038-2.86l-.5-5.333c-.12-1.28-.18-1.921-.468-2.405a2.5 2.5 0 0 0-1.076-.98C15.454 5 14.81 5 13.525 5H7.477c-1.287 0-1.93 0-2.439.242a2.5 2.5 0 0 0-1.076.98c-.288.484-.348 1.124-.468 2.405Z" stroke="#767676" stroke-width="1.5" stroke-linecap="round" stroke-linejoin="round"/></svg><svg fill="none" viewBox="0 0 16 16" id="phone" xmlns="http://www.w3.org/2000/svg"><path d="M10.985 15.5a5.488 5.488 0 0 1-2.217-.488 15.553 15.553 0 0 1-5.43-4.043C2.25 9.687-1.044 5.806.396 2.524A4.439 4.439 0 0 1 1.648.893a1.756 1.756 0 0 1 2.273.05l.05.056L5.92 3.174a1.561 1.561 0 0 1 .069 2.232l-.89.756c.429.809.952 1.564 1.56 2.25.672.758 1.44 1.427 2.285 1.988l1.434-1.25a1.473 1.473 0 0 1 2.017.087l2.129 2.169a1.755 1.755 0 0 1 .119 2.35 4.69 4.69 0 0 1-1.547 1.25 4.641 4.641 0 0 1-2.11.494ZM2.738 1.75a.483.483 0 0 0-.301.1 3.232 3.232 0 0 0-.927 1.187c-.758 1.7.17 4.094 2.755 7.119a14.457 14.457 0 0 0 5.01 3.75 3.894 3.894 0 0 0 3.263 0c.435-.223.82-.531 1.133-.906a.524.524 0 0 0-.05-.688l-2.123-2.187a.22.22 0 0 0-.307 0L9.394 11.65a.627.627 0 0 1-.733.062 13.04 13.04 0 0 1-2.955-2.5 12.71 12.71 0 0 1-1.948-2.937.624.624 0 0 1 .157-.744L5.13 4.499a.325.325 0 0 0-.063-.412l-.056-.056-1.948-2.17a.564.564 0 0 0-.325-.112Z" fill="#767676"/></svg><svg fill="none" viewBox="0 0 12 12" id="plus" xmlns="http://www.w3.org/2000/svg"><path d="m6.109 6.448 4.553.013a.461.461 0 0 0 .001-.92L6.11 5.56l.004-4.538a.46.46 0 1 0-.918-.054l.013 4.554-4.537.003a.459.459 0 0 0-.427.637.457.457 0 0 0 .426.284l4.537-.004-.02 4.554a.457.457 0 0 0 .637.425.458.458 0 0 0 .284-.426V6.448Z" fill="#767676"/></svg><svg fill="none" viewBox="0 0 24 25" id="quality" xmlns="http://www.w3.org/2000/svg"><g clip-path="url(#bfa)" fill="currentColor"><path d="M20.25 8.973A8.247 8.247 0 0 0 12.516.737a8.251 8.251 0 0 0-8.183 11.278 8.25 8.25 0 0 0 2.417 3.317v8.639a.75.75 0 0 0 .465.69.749.749 0 0 0 .818-.158L12 20.53l3.967 3.974a.75.75 0 0 0 1.155-.117.75.75 0 0 0 .128-.415v-8.639a8.25 8.25 0 0 0 3-6.359Zm-15 0a6.748 6.748 0 0 1 8.067-6.619 6.75 6.75 0 0 1 4.92 9.202A6.75 6.75 0 0 1 5.25 8.973Zm10.5 13.19-2.693-2.691a1.5 1.5 0 0 0-2.114 0L8.25 22.164v-5.85a8.207 8.207 0 0 0 7.5 0v5.85Z"/><path d="M12 14.22a5.25 5.25 0 1 1 0-10.5 5.25 5.25 0 0 1 0 10.5Zm0-9a3.75 3.75 0 1 0 0 7.5 3.75 3.75 0 0 0 0-7.5Z"/></g><defs><clipPath id="bfa"><path fill="currentColor" d="M0 0h24v24H0z"/>transform="translate(0 0.720947)"/&gt;</clipPath></defs></svg><svg fill="none" viewBox="0 0 25 24" id="quotes" xmlns="http://www.w3.org/2000/svg"><path d="m11.255 6-6 6 6 6M19.745 18l-6-6 6-6" stroke="#E2001A" stroke-width="2" stroke-linecap="round" stroke-linejoin="round"/></svg><svg fill="none" viewBox="0 0 10 16" id="right-arrow" xmlns="http://www.w3.org/2000/svg"><path d="m1.5 15 7-7-7-7" stroke="currentColor" stroke-width="2" stroke-linecap="round"/></svg><svg fill="none" viewBox="0 0 32 32" id="search" xmlns="http://www.w3.org/2000/svg"><path d="m27.716 26.314-5.96-5.948a9.989 9.989 0 0 0-.98-13.755 10.035 10.035 0 0 0-13.815.294 9.99 9.99 0 0 0-.392 13.784 10.037 10.037 0 0 0 13.776 1.075l5.96 5.948a.994.994 0 0 0 1.411-1.398Zm-13.61-4.263a7.959 7.959 0 0 1-4.414-1.336 7.934 7.934 0 0 1-2.927-3.56 7.915 7.915 0 0 1 1.723-8.642 7.952 7.952 0 0 1 8.66-1.719 7.943 7.943 0 0 1 3.567 2.92 7.92 7.92 0 0 1-.989 10.015 7.956 7.956 0 0 1-5.62 2.322Z" fill="currentColor"/></svg><svg fill="none" viewBox="0 0 24 24" id="settings" xmlns="http://www.w3.org/2000/svg"><path d="M3 8h12m0 0a3 3 0 1 0 6 0 3 3 0 0 0-6 0Zm-6 8h12M9 16a3 3 0 1 1-6 0 3 3 0 0 1 6 0Z" stroke="#666" stroke-width="1.5" stroke-linecap="round" stroke-linejoin="round"/></svg><svg fill="none" viewBox="0 0 12 12" id="time" xmlns="http://www.w3.org/2000/svg"><path d="m6.6 6.105 1.35 1.35a.56.56 0 0 1 .165.413.61.61 0 0 1-.165.427.584.584 0 0 1-.427.18.584.584 0 0 1-.428-.18L5.82 7.02a1.42 1.42 0 0 1-.315-.465A1.444 1.444 0 0 1 5.4 6V4.2c0-.17.058-.313.173-.428A.58.58 0 0 1 6 3.6c.17 0 .313.057.428.172A.582.582 0 0 1 6.6 4.2v1.905ZM6 12a5.84 5.84 0 0 1-2.34-.473 6.055 6.055 0 0 1-1.905-1.282A6.055 6.055 0 0 1 .473 8.34 5.84 5.84 0 0 1 0 6c0-.83.158-1.61.473-2.34a6.055 6.055 0 0 1 1.282-1.905A6.063 6.063 0 0 1 3.66.472 5.846 5.846 0 0 1 6 0c.83 0 1.61.157 2.34.472.73.315 1.365.743 1.905 1.283.54.54.967 1.175 1.282 1.905.315.73.473 1.51.473 2.34 0 .83-.158 1.61-.473 2.34a6.055 6.055 0 0 1-1.282 1.905c-.54.54-1.175.967-1.905 1.282A5.84 5.84 0 0 1 6 12Zm0-1.2c1.34 0 2.475-.465 3.405-1.395C10.335 8.475 10.8 7.34 10.8 6c0-1.34-.465-2.475-1.395-3.405C8.475 1.665 7.34 1.2 6 1.2c-1.34 0-2.475.465-3.405 1.395C1.665 3.525 1.2 4.66 1.2 6c0 1.34.465 2.475 1.395 3.405.93.93 2.065 1.395 3.405 1.395Z" fill="#666"/></svg><svg fill="none" viewBox="0 0 578 139" id="title-discount-baner" xmlns="http://www.w3.org/2000/svg"><path d="M44.3 64.99H33.544L20.74 39.37H9.218v25.62H0V4.184h23.558c11.523 0 18.864 7.43 18.864 17.763 0 8.711-5.292 14.263-12.12 16.141L44.3 64.99ZM33.203 22.033c0-5.978-4.182-9.565-10.328-9.565H9.218v19.044h13.657c6.146 0 10.328-3.501 10.328-9.48ZM96.58 34.587c0 12.725-.17 18.788-6.145 24.767-3.927 3.928-9.048 6.148-15.706 6.148-6.657 0-11.779-2.22-15.705-6.148-5.975-5.979-6.146-12.042-6.146-24.767s.171-18.789 6.146-24.767c3.926-3.928 9.048-6.149 15.705-6.149 6.658 0 11.78 2.22 15.706 6.15 5.975 5.977 6.145 12.041 6.145 24.766Zm-9.218 0c0-12.042-.512-15.8-3.585-18.96-2.305-2.39-5.377-3.757-9.048-3.757-3.67 0-6.743 1.366-9.047 3.758-2.988 3.245-3.585 6.917-3.585 18.959s.597 15.628 3.585 18.874c2.304 2.391 5.377 3.843 9.047 3.843 3.67 0 6.743-1.452 9.048-3.843 3.073-3.16 3.585-6.832 3.585-18.874ZM147.514 4.184l-18.181 35.783V64.99h-9.219V39.967l-18.18-35.783h10.072l12.718 26.73 12.718-26.73h10.072ZM197.599 64.99h-9.816l-4.182-12.212h-23.985l-4.182 12.212h-9.816l22.277-60.806h7.426l22.278 60.806ZM181.04 44.92l-9.218-26.987-9.475 26.988h18.693ZM244.715 64.99H206.22V4.184h9.218v52.522h29.277v8.284ZM317.05 46.8c-2.134 12.041-10.584 18.703-21.68 18.703-6.658 0-11.779-2.22-15.706-6.15-5.889-5.978-6.145-12.041-6.145-24.766 0-12.725.256-18.789 6.145-24.767 3.927-3.928 9.048-6.149 15.706-6.149 11.181 0 19.546 6.662 21.68 18.703h-9.389c-1.366-6.234-5.548-10.504-12.291-10.504-3.67 0-6.743 1.366-8.962 3.758-3.073 3.245-3.671 6.917-3.671 18.959s.598 15.714 3.671 18.96c2.219 2.39 5.292 3.757 8.962 3.757 6.743 0 11.011-4.27 12.462-10.505h9.218ZM373.228 64.99h-9.816l-4.182-12.212h-23.985l-4.183 12.212h-9.815l22.277-60.806h7.426l22.278 60.806Zm-16.559-20.07-9.218-26.987-9.475 26.988h18.693ZM427.599 64.99h-8.45l-28.082-42.786V64.99h-9.218V4.184h8.45l28.082 42.7v-42.7h9.218V64.99ZM452.667 64.99h-9.219V4.184h9.219V64.99ZM514.289 64.99h-8.451l-28.082-42.786V64.99h-9.218V4.184h8.45l28.082 42.7v-42.7h9.219V64.99ZM562.811 18.55c0 10.248-8.296 18.549-18.539 18.549-10.243 0-18.539-8.301-18.539-18.55C525.733 8.301 534.029 0 544.272 0c10.243 0 18.539 8.301 18.539 18.55Zm-3.738 0c0-8.456-6.504-15.117-14.801-15.117-8.296 0-14.852 6.662-14.852 15.116 0 8.455 6.556 15.117 14.852 15.117 8.297 0 14.801-6.662 14.801-15.117Zm-6.76 9.991h-4.149l-4.097-7.942h-2.56v7.942h-3.688V8.506h7.529c3.789 0 6.453 2.818 6.453 6.149 0 2.818-1.742 4.663-3.944 5.432l4.456 8.454Zm-4.149-13.886c0-1.69-1.331-3.023-3.277-3.023h-3.38v6.046h3.38c1.946 0 3.277-1.332 3.277-3.023ZM449.006 129.042h-6.174V88.313h6.174v40.729Zm24.299 0h-7.833l-16.408-21.337 15.207-19.392h7.604l-15.665 19.22 17.095 21.509ZM506.636 129.042h-6.175v-35.18h-11.72v12.87c0 17.104-4.116 22.31-12.292 22.31h-2.573v-5.549h1.087c4.516 0 7.775-2.86 7.775-17.619V88.313h23.898v40.729ZM543.614 88.313l-14.579 34.093c-1.601 3.718-4.174 6.636-8.576 6.636h-4.231v-5.549h2.916c2.458 0 3.831-1.087 4.745-3.261l1.43-3.317-13.207-28.602h6.518l9.719 21.794 8.747-21.794h6.518ZM578 116.686c0 7.322-4.917 12.356-12.864 12.356H549.3V88.313h26.184v5.549h-20.01v10.468h9.662c7.89 0 12.864 5.034 12.864 12.356Zm-6.175 0c0-4.176-2.63-6.807-7.089-6.807h-9.262v13.614h9.262c4.459 0 7.089-2.574 7.089-6.807Z" fill="#E2001A"/><path d="M36.265 116.691H19.571v-5.435h16.694v5.435ZM60.38 129.847h-5.832V95.468l-7.947 6.979v-6.464l7.947-6.864h5.831v40.728ZM97.553 118.521c0 7.265-5.26 11.67-11.778 11.67-6.46 0-11.72-4.405-11.72-11.67v-18.076c0-7.265 5.26-11.67 11.72-11.67 6.518 0 11.778 4.405 11.778 11.67v18.076Zm-5.832-.171v-17.733c0-3.89-2.23-6.636-5.946-6.636-3.659 0-5.889 2.746-5.889 6.636v17.733c0 3.889 2.23 6.635 5.89 6.635 3.715 0 5.945-2.746 5.945-6.635ZM145.875 122.411c0 4.92-3.545 7.837-8.004 7.837-4.46 0-8.004-2.917-8.004-7.837v-5.778c0-4.919 3.544-7.836 8.004-7.836 4.459 0 8.004 2.917 8.004 7.836v5.778Zm-25.499-20.078c0 4.919-3.545 7.779-8.004 7.779-4.46 0-8.004-2.86-8.004-7.779v-5.778c0-4.92 3.544-7.837 8.004-7.837 4.459 0 8.004 2.918 8.004 7.837v5.778Zm16.637-13.214-19.153 40.728h-4.688l19.21-40.728h4.631Zm4.459 33.12v-5.434c0-2.574-1.143-4.119-3.601-4.119-2.459 0-3.602 1.488-3.602 4.119v5.434c0 2.632 1.143 4.119 3.602 4.119 2.458 0 3.601-1.544 3.601-4.119Zm-25.498-20.078v-5.434c0-2.574-1.144-4.119-3.602-4.119-2.459 0-3.602 1.487-3.602 4.119v5.434c0 2.631 1.143 4.061 3.602 4.061 2.458 0 3.602-1.487 3.602-4.061ZM195.902 117.663c-1.429 8.066-7.089 12.528-14.522 12.528-4.459 0-7.889-1.488-10.519-4.119-3.945-4.004-4.117-8.066-4.117-16.589 0-8.523.172-12.585 4.117-16.589 2.63-2.631 6.06-4.119 10.519-4.119 7.49 0 13.093 4.462 14.522 12.528h-6.289c-.915-4.176-3.716-7.036-8.233-7.036-2.458 0-4.516.915-6.003 2.517-2.058 2.174-2.458 4.633-2.458 12.699 0 8.066.4 10.525 2.458 12.699 1.487 1.602 3.545 2.517 6.003 2.517 4.517 0 7.375-2.86 8.347-7.036h6.175ZM210.477 129.847h-6.175V89.119h6.175v40.728Zm24.298 0h-7.833l-16.408-21.336 15.208-19.392h7.604l-15.665 19.22 17.094 21.508ZM269.879 129.847h-6.175v-29.574l-18.238 29.574h-5.603V89.119h6.175v29.517l18.181-29.517h5.66v40.728ZM290.971 94.667v9.096c0 7.779-.971 14.815-4.002 20.536h15.323V94.667h-11.321Zm-5.945-5.548h23.44v35.18h4.803V139h-6.061v-9.153H282.51V139h-6.003v-14.701h3.545c3.544-5.492 4.974-13.5 4.974-23.168V89.119ZM326.887 129.847h-6.175V89.119h6.175v40.728Zm24.298 0h-7.833l-16.408-21.336 15.208-19.392h7.604l-15.666 19.22 17.095 21.508ZM387.626 129.847h-6.461l-2.858-8.18h-16.066l-2.858 8.18h-6.518l14.922-40.728h4.974l14.865 40.728Zm-10.977-13.442-6.232-18.077-6.403 18.077h12.635Z" fill="#D9D9D9"/><path fill="#E2001A" d="M410 88h6v42h-6z"/></svg><svg fill="none" viewBox="0 0 16 10" id="up-arrow" xmlns="http://www.w3.org/2000/svg"><path d="m15 8.5-7-7-7 7" stroke="currentColor" stroke-width="2" stroke-linecap="round"/></svg><svg fill="none" viewBox="0 0 32 32" id="vet" xmlns="http://www.w3.org/2000/svg"><g clip-path="url(#bna)"><path d="M24.04 17.892c-.96.02-1.883.38-2.597 1.018a3.953 3.953 0 0 0-.662 5.154 4.007 4.007 0 0 0 2.257 1.633 4.463 4.463 0 0 1-1.445 3.113 4.533 4.533 0 0 1-3.24 1.188 4.527 4.527 0 0 1-3.136-1.434 4.458 4.458 0 0 1-1.197-3.215v-6.463h.13a9.717 9.717 0 0 0 6.38-3.127 9.573 9.573 0 0 0 2.508-6.608V2.977c0-.791-.317-1.55-.88-2.11a3.018 3.018 0 0 0-2.126-.873c-.266 0-.52.104-.709.29a.99.99 0 0 0 0 1.407c.188.187.443.291.709.291.266 0 .52.105.709.292a.99.99 0 0 1 .293.703V9.15a7.583 7.583 0 0 1-1.965 5.249 7.698 7.698 0 0 1-5.049 2.497 7.57 7.57 0 0 1-3.03-.418 7.525 7.525 0 0 1-2.61-1.582 7.458 7.458 0 0 1-1.76-2.484 7.408 7.408 0 0 1-.616-2.973V2.977a.99.99 0 0 1 .293-.703c.188-.187.443-.292.709-.292.266 0 .52-.104.709-.29a.99.99 0 0 0 0-1.407 1.006 1.006 0 0 0-.709-.291c-.797 0-1.562.314-2.126.873A2.971 2.971 0 0 0 4 2.977V9.44a9.394 9.394 0 0 0 2.274 6.13 9.528 9.528 0 0 0 5.742 3.197v6.582a6.438 6.438 0 0 0 1.78 4.623 6.539 6.539 0 0 0 4.553 2.02 6.544 6.544 0 0 0 4.658-1.767 6.444 6.444 0 0 0 2.035-4.518 4.007 4.007 0 0 0 2.281-1.627 3.953 3.953 0 0 0-.664-5.18 4.026 4.026 0 0 0-2.619-1.008Zm0 5.966c-.396 0-.784-.117-1.113-.336a1.991 1.991 0 0 1-.738-.892 1.975 1.975 0 0 1 .434-2.167 2.008 2.008 0 0 1 2.184-.431 2 2 0 0 1 .9.732 1.978 1.978 0 0 1-.25 2.511 2.012 2.012 0 0 1-1.417.583Z" fill="#E2001A"/></g><defs><clipPath id="bna"><path fill="#fff" transform="translate(0 -.006)" d="M0 0h32v32H0z"/></clipPath></defs></svg></svg>